<svg width="1040" height="719" viewBox="0 0 1040 719" fill="none" xmlns="http://www.w3.org/2000/svg">
<rect x="186" y="4" width="760" height="504" rx="36" stroke="#121515" stroke-width="8"/>
<g clip-path="url(#clip0_35_689)">
<rect width="218.9" height="473.99" transform="translate(74.2588 75.0909)" fill="white"/>
<path opacity="0.35" d="M270.684 86.7657C270.684 86.0672 271.251 85.501 271.949 85.501H281.678C282.377 85.501 282.943 86.0672 282.943 86.7657V90.2681C282.943 90.9666 282.377 91.5329 281.678 91.5329H271.949C271.251 91.5329 270.684 90.9666 270.684 90.2681V86.7657Z" stroke="black" stroke-width="0.583732"/>
<path opacity="0.4" d="M283.818 87.3495V89.6844C284.288 89.4867 284.594 89.0266 284.594 88.517C284.594 88.0073 284.288 87.5472 283.818 87.3495Z" fill="black"/>
<path d="M271.56 87.1549C271.56 86.725 271.908 86.3766 272.338 86.3766H281.288C281.718 86.3766 282.067 86.725 282.067 87.1549V89.879C282.067 90.3088 281.718 90.6573 281.288 90.6573H272.338C271.908 90.6573 271.56 90.3088 271.56 89.879V87.1549Z" fill="black"/>
<path fill-rule="evenodd" clip-rule="evenodd" d="M262.996 86.5369C264.289 86.5369 265.533 87.0339 266.471 87.9252C266.541 87.994 266.654 87.9931 266.724 87.9232L267.399 87.2422C267.434 87.2068 267.453 87.1588 267.453 87.1088C267.453 87.0588 267.433 87.0111 267.397 86.976C264.936 84.618 261.055 84.618 258.594 86.976C258.559 87.011 258.538 87.0588 258.538 87.1088C258.538 87.1587 258.557 87.2067 258.593 87.2422L259.268 87.9232C259.337 87.9932 259.45 87.9941 259.52 87.9252C260.458 87.0339 261.702 86.5369 262.996 86.5369ZM262.996 88.7525C263.707 88.7525 264.392 89.0167 264.919 89.4937C264.99 89.5614 265.103 89.5599 265.172 89.4904L265.846 88.8094C265.882 88.7736 265.901 88.7252 265.901 88.6748C265.9 88.6245 265.88 88.5764 265.843 88.5414C264.239 87.0492 261.755 87.0492 260.151 88.5414C260.114 88.5764 260.094 88.6245 260.093 88.6749C260.093 88.7252 260.112 88.7737 260.148 88.8094L260.822 89.4904C260.891 89.5599 261.004 89.5614 261.075 89.4937C261.601 89.017 262.286 88.7528 262.996 88.7525ZM264.346 90.2433C264.348 90.2938 264.328 90.3425 264.292 90.3778L263.126 91.5544C263.092 91.589 263.045 91.6085 262.996 91.6085C262.948 91.6085 262.901 91.589 262.867 91.5544L261.701 90.3778C261.665 90.3424 261.645 90.2937 261.646 90.2432C261.647 90.1927 261.669 90.1449 261.706 90.1111C262.451 89.4813 263.542 89.4813 264.286 90.1111C264.324 90.1449 264.345 90.1928 264.346 90.2433Z" fill="black"/>
<path fill-rule="evenodd" clip-rule="evenodd" d="M255.021 85.4036H254.438C254.115 85.4036 253.854 85.6649 253.854 85.9873V91.0463C253.854 91.3687 254.115 91.63 254.438 91.63H255.021C255.344 91.63 255.605 91.3687 255.605 91.0463V85.9873C255.605 85.6649 255.344 85.4036 255.021 85.4036ZM251.714 86.7656H252.298C252.62 86.7656 252.881 87.0269 252.881 87.3493V91.0463C252.881 91.3687 252.62 91.63 252.298 91.63H251.714C251.392 91.63 251.13 91.3687 251.13 91.0463V87.3493C251.13 87.0269 251.392 86.7656 251.714 86.7656ZM249.573 88.1277H248.989C248.667 88.1277 248.405 88.389 248.405 88.7114V91.0463C248.405 91.3687 248.667 91.6301 248.989 91.6301H249.573C249.895 91.6301 250.157 91.3687 250.157 91.0463V88.7114C250.157 88.389 249.895 88.1277 249.573 88.1277ZM246.849 89.2951H246.265C245.943 89.2951 245.682 89.5565 245.682 89.8789V91.0463C245.682 91.3687 245.943 91.6301 246.265 91.6301H246.849C247.171 91.6301 247.433 91.3687 247.433 91.0463V89.8789C247.433 89.5565 247.171 89.2951 246.849 89.2951Z" fill="black"/>
<path d="M96.0445 91.5851C97.6136 91.5851 98.5456 90.3581 98.5456 88.2802C98.5456 87.4978 98.396 86.8394 98.1095 86.3307C97.6948 85.5397 96.9808 85.1122 96.0787 85.1122C94.7362 85.1122 93.7871 86.0143 93.7871 87.2798C93.7871 88.4684 94.6422 89.332 95.8179 89.332C96.5405 89.332 97.1262 88.9942 97.4169 88.4085H97.4297C97.4297 88.4085 97.4468 88.4085 97.4511 88.4085C97.4597 88.4085 97.4896 88.4085 97.4896 88.4085C97.4896 89.8194 96.9552 90.6616 96.0531 90.6616C95.5229 90.6616 95.1125 90.3709 94.9714 89.9049H93.8726C94.0565 90.9181 94.9158 91.5851 96.0445 91.5851ZM96.083 88.4555C95.3733 88.4555 94.8688 87.951 94.8688 87.2456C94.8688 86.5573 95.3989 86.0314 96.0873 86.0314C96.7756 86.0314 97.3057 86.5658 97.3057 87.2627C97.3057 87.951 96.7884 88.4555 96.083 88.4555Z" fill="black"/>
<path d="M100.35 91.5253C100.756 91.5253 101.034 91.2345 101.034 90.8497C101.034 90.4607 100.756 90.1742 100.35 90.1742C99.9481 90.1742 99.6659 90.4607 99.6659 90.8497C99.6659 91.2345 99.9481 91.5253 100.35 91.5253ZM100.35 88.3187C100.756 88.3187 101.034 88.0323 101.034 87.6475C101.034 87.2584 100.756 86.972 100.35 86.972C99.9481 86.972 99.6659 87.2584 99.6659 87.6475C99.6659 88.0323 99.9481 88.3187 100.35 88.3187Z" fill="black"/>
<path d="M105.036 91.4355H106.092V90.2854H106.926V89.3534H106.092V85.2661H104.536C103.446 86.9078 102.578 88.2802 102.022 89.3021V90.2854H105.036V91.4355ZM103.044 89.3149C103.762 88.0494 104.403 87.0361 104.993 86.1639H105.053V89.379H103.044V89.3149Z" fill="black"/>
<path d="M109.277 91.4355H110.38V85.2661H109.282L107.67 86.3948V87.4551L109.205 86.3777H109.277V91.4355Z" fill="black"/>
<rect x="144.891" y="541.646" width="78.2201" height="2.91866" rx="1.45933" fill="black"/>
</g>
<path d="M303.905 191.224H304.769C305.246 191.224 305.633 191.612 305.633 192.091V248.763C305.633 249.242 305.246 249.631 304.769 249.631H303.905V191.224Z" fill="#303030"/>
<path d="M63.7275 261.775L62.8636 261.775C62.3864 261.775 61.9996 261.387 61.9996 260.907L61.9996 226.788C61.9996 226.309 62.3864 225.921 62.8636 225.921L63.7275 225.921L63.7275 261.775Z" fill="#303030"/>
<path d="M63.7275 214.355L62.8636 214.355C62.3864 214.355 61.9996 213.967 61.9996 213.488L61.9996 179.369C61.9996 178.89 62.3864 178.501 62.8636 178.501L63.7275 178.501L63.7275 214.355Z" fill="#333333"/>
<path d="M63.7275 161.153L62.8636 161.153C62.3864 161.153 61.9996 160.764 61.9996 160.285L61.9996 143.515C61.9996 143.036 62.3864 142.647 62.8636 142.647L63.7275 142.647L63.7275 161.153Z" fill="#333333"/>
<path fill-rule="evenodd" clip-rule="evenodd" d="M65.5599 89.9732C63.7275 95.6353 63.7275 102.632 63.7275 116.624V507.548C63.7275 521.541 63.7275 528.537 65.5599 534.199C69.2631 545.642 78.1989 554.614 89.5963 558.332C95.2357 560.172 102.204 560.172 116.14 560.172H251.492C265.428 560.172 272.396 560.172 278.036 558.332C289.433 554.614 298.369 545.642 302.072 534.199C303.905 528.537 303.905 521.541 303.905 507.548V116.624C303.905 102.632 303.905 95.6353 302.072 89.9732C298.369 78.5298 289.433 69.5579 278.036 65.8397C272.396 64 265.428 64 251.492 64H116.14C102.204 64 95.2357 64 89.5963 65.8397C78.1989 69.5579 69.2631 78.5298 65.5599 89.9732ZM124.78 78.1681V80.7704L124.821 80.7691L124.78 81.0595C124.78 87.9262 130.324 93.4927 137.163 93.4927H230.469C237.308 93.4927 242.853 87.9262 242.853 81.0595L242.811 80.7691L242.852 80.7704V78.1681C242.852 76.4115 244.271 74.9875 246.02 74.9875L253.439 74.9875C265.036 74.9875 270.835 74.9875 275.46 76.7421C282.729 79.5 288.467 85.2613 291.214 92.5598C292.961 97.2032 292.961 103.025 292.961 114.67V509.503C292.961 521.147 292.961 526.969 291.214 531.612C288.467 538.911 282.729 544.672 275.46 547.43C270.835 549.185 265.036 549.185 253.439 549.185H114.194C102.596 549.185 96.7975 549.185 92.1728 547.43C84.9036 544.672 79.1655 538.911 76.4187 531.612C74.6711 526.969 74.6711 521.147 74.6711 509.503V114.67C74.6711 103.025 74.6711 97.2032 76.4187 92.5598C79.1655 85.2613 84.9036 79.5 92.1728 76.7421C96.7975 74.9875 102.596 74.9875 114.194 74.9875L121.612 74.9875C123.362 74.9875 124.78 76.4115 124.78 78.1681Z" fill="#333333"/>
<path fill-rule="evenodd" clip-rule="evenodd" d="M251.721 65.1567H115.909C102.142 65.1567 95.3955 65.1638 89.9515 66.9398C78.9048 70.5436 70.244 79.2394 66.6546 90.3307C64.8858 95.7966 64.8787 102.571 64.8787 116.393V507.779C64.8787 521.602 64.8858 528.376 66.6546 533.842C70.244 544.933 78.9048 553.629 89.9515 557.233C95.3955 559.009 102.142 559.016 115.909 559.016H251.721C265.488 559.016 272.235 559.009 277.679 557.233C288.726 553.629 297.387 544.933 300.976 533.842C302.745 528.376 302.752 521.602 302.752 507.779V116.393C302.752 102.571 302.745 95.7966 300.976 90.3307C297.387 79.2394 288.726 70.5436 277.679 66.9398C272.235 65.1638 265.488 65.1567 251.721 65.1567ZM66.1069 90.152C64.3027 95.727 64.3027 102.616 64.3027 116.393V507.779C64.3027 521.557 64.3027 528.445 66.1069 534.02C69.7532 545.288 78.5514 554.122 89.7735 557.783C95.3261 559.594 102.187 559.594 115.909 559.594H251.721C265.443 559.594 272.304 559.594 277.857 557.783C289.079 554.122 297.877 545.288 301.524 534.02C303.328 528.445 303.328 521.557 303.328 507.779V116.393C303.328 102.616 303.328 95.727 301.524 90.152C297.877 78.8846 289.079 70.0508 277.857 66.3898C272.304 64.5784 265.443 64.5784 251.721 64.5784H115.909C102.187 64.5784 95.3261 64.5784 89.7735 66.3898C78.5514 70.0508 69.7532 78.8846 66.1069 90.152Z" fill="#303030"/>
<path fill-rule="evenodd" clip-rule="evenodd" d="M68.2998 90.8668C66.6084 96.0933 66.6084 102.551 66.6084 115.468V508.704C66.6084 521.621 66.6084 528.079 68.2998 533.305C71.7182 543.869 79.9666 552.15 90.4873 555.583C95.6928 557.281 102.125 557.281 114.989 557.281H252.645C265.509 557.281 271.941 557.281 277.147 555.583C287.668 552.15 295.916 543.869 299.334 533.305C301.026 528.079 301.026 521.621 301.026 508.704V115.468C301.026 102.551 301.026 96.0933 299.334 90.8668C295.916 80.3036 287.668 72.0219 277.147 68.5897C271.941 66.8915 265.509 66.8915 252.645 66.8915H114.989C102.125 66.8915 95.6928 66.8915 90.4873 68.5897C79.9666 72.0219 71.7182 80.3036 68.2998 90.8668ZM124.781 78.1681V80.7704L124.822 80.7691L124.78 81.0596C124.78 87.9262 130.325 93.4928 137.164 93.4928H230.47C237.309 93.4928 242.853 87.9262 242.853 81.0596L242.812 80.7691L242.853 80.7704V78.1681C242.853 76.4115 244.271 74.9875 246.021 74.9875L253.439 74.9875C265.037 74.9875 270.835 74.9875 275.46 76.7421C282.729 79.5 288.468 85.2613 291.214 92.5598C292.962 97.2032 292.962 103.025 292.962 114.67V509.503C292.962 521.147 292.962 526.969 291.214 531.612C288.468 538.911 282.729 544.672 275.46 547.43C270.835 549.185 265.037 549.185 253.439 549.185H114.194C102.597 549.185 96.7979 549.185 92.1731 547.43C84.904 544.672 79.1658 538.911 76.4191 531.612C74.6715 526.969 74.6715 521.147 74.6715 509.503V114.67C74.6715 103.025 74.6715 97.2032 76.4191 92.5598C79.1658 85.2613 84.904 79.5 92.1731 76.7421C96.7979 74.9875 102.597 74.9875 114.194 74.9875L121.613 74.9875C123.362 74.9875 124.781 76.4115 124.781 78.1681Z" fill="#121515"/>
<rect x="252.645" y="64" width="3.45577" height="2.89145" fill="#414141"/>
<rect x="301.025" y="113.733" width="2.87986" height="3.46973" fill="#414141"/>
<rect x="63.7285" y="113.733" width="2.87982" height="3.46973" fill="#414141"/>
<rect x="63.7285" y="506.969" width="2.87982" height="3.46972" fill="#414141"/>
<rect x="301.025" y="506.969" width="2.87986" height="3.46972" fill="#414141"/>
<rect x="111.533" y="557.281" width="3.45579" height="2.89144" fill="#414141"/>
<path fill-rule="evenodd" clip-rule="evenodd" d="M208.295 87.1315C210.84 87.1315 212.903 85.0603 212.903 82.5052C212.903 79.9502 210.84 77.8789 208.295 77.8789C205.75 77.8789 203.688 79.9502 203.688 82.5052C203.688 85.0603 205.75 87.1315 208.295 87.1315Z" fill="#262C2D"/>
<path fill-rule="evenodd" clip-rule="evenodd" d="M208.294 85.3967C209.884 85.3967 211.174 84.1021 211.174 82.5052C211.174 80.9083 209.884 79.6138 208.294 79.6138C206.703 79.6138 205.414 80.9083 205.414 82.5052C205.414 84.1021 206.703 85.3967 208.294 85.3967Z" fill="#121515"/>
<path opacity="0.4" fill-rule="evenodd" clip-rule="evenodd" d="M208.295 81.9275C208.613 81.9275 208.871 81.6685 208.871 81.3489C208.871 81.0294 208.613 80.7704 208.295 80.7704C207.977 80.7704 207.719 81.0294 207.719 81.3489C207.719 81.6685 207.977 81.9275 208.295 81.9275Z" fill="#636F73"/>
<path fill-rule="evenodd" clip-rule="evenodd" d="M169.705 82.5053C169.705 81.5471 170.482 80.7704 171.44 80.7704H196.192C197.151 80.7704 197.927 81.5471 197.927 82.5053C197.927 83.4634 197.151 84.2401 196.192 84.2401H171.44C170.482 84.2401 169.705 83.4634 169.705 82.5053Z" fill="#262C2D"/>
<defs>
<clipPath id="clip0_35_689">
<rect width="218.9" height="473.99" fill="white" transform="translate(74.2588 75.0909)"/>
</clipPath>
</defs>
</svg>
