<svg width="58" height="58" viewBox="0 0 58 58" fill="none" xmlns="http://www.w3.org/2000/svg">
<rect width="58" height="58" rx="29" fill="#EBF4FC"/>
<path d="M7.4375 29C7.4375 38.4156 13.475 46.3938 21.8125 49.3406V8.65938C13.475 11.6063 7.4375 19.5844 7.4375 29Z" fill="#ED4C5C"/>
<path d="M29 7.4375C26.4844 7.4375 24.0406 7.86875 21.8125 8.65938V21.8125H49.3406C46.3937 13.475 38.4156 7.4375 29 7.4375Z" fill="#699635"/>
<path d="M49.3406 21.8125H21.8125V36.1875H49.3406C50.1313 33.9594 50.5625 31.5156 50.5625 29C50.5625 26.4844 50.1313 24.0406 49.3406 21.8125Z" fill="#F9F9F9"/>
<path d="M21.8125 36.1875V49.3406C24.0406 50.1312 26.4844 50.5625 29 50.5625C38.4156 50.5625 46.3937 44.5969 49.3406 36.1875H21.8125Z" fill="#3E4347"/>
</svg>
