<svg width="58" height="58" viewBox="0 0 58 58" fill="none" xmlns="http://www.w3.org/2000/svg">
<rect width="58" height="58" rx="29" fill="#EBF4FC"/>
<path d="M28.9285 7.4375C19.5129 7.4375 11.5348 13.475 8.58789 21.8125H49.2691C46.3223 13.475 38.3441 7.4375 28.9285 7.4375Z" fill="#3E4347"/>
<path d="M28.9285 50.5625C38.3441 50.5625 46.3223 44.5969 49.2691 36.1875H8.58789C11.5348 44.5969 19.5129 50.5625 28.9285 50.5625Z" fill="#FFE62E"/>
<path d="M8.58711 21.8125C7.79648 24.0406 7.36523 26.4844 7.36523 29C7.36523 31.5156 7.79648 33.9594 8.58711 36.1875H49.2684C50.059 33.9594 50.4902 31.5156 50.4902 29C50.4902 26.4844 50.059 24.0406 49.2684 21.8125H8.58711Z" fill="#ED4C5C"/>
</svg>
