<svg width="58" height="58" viewBox="0 0 58 58" fill="none" xmlns="http://www.w3.org/2000/svg">
<rect width="58" height="58" rx="29" fill="#EBF4FC"/>
<path d="M29 50.5625C40.9086 50.5625 50.5625 40.9086 50.5625 29C50.5625 17.0914 40.9086 7.4375 29 7.4375C17.0914 7.4375 7.4375 17.0914 7.4375 29C7.4375 40.9086 17.0914 50.5625 29 50.5625Z" fill="#ED4C5C"/>
<path d="M35.6844 34.0312L35.7563 30.15L31.875 29L35.7563 27.85L35.6844 23.9688L38.0562 27.0594L41.9375 25.9094L39.5656 29L41.9375 32.0906L38.0562 30.9406L35.6844 34.0312Z" fill="white"/>
<path d="M29.8625 37.625C25.1188 37.625 21.3094 33.7437 21.3094 29C21.3094 24.2562 25.1188 20.375 29.8625 20.375C31.6594 20.375 33.3125 20.95 34.75 21.8844C32.8094 19.6563 29.9344 18.2188 26.7 18.2188C20.8062 18.2188 16.0625 23.0344 16.0625 29C16.0625 34.9656 20.8062 39.7812 26.7 39.7812C29.9344 39.7812 32.8094 38.3438 34.75 36.1156C33.3844 37.05 31.7313 37.625 29.8625 37.625Z" fill="white"/>
</svg>
