<svg width="58" height="58" viewBox="0 0 58 58" fill="none" xmlns="http://www.w3.org/2000/svg">
<rect width="58" height="58" rx="29" fill="#EBF4FC"/>
<path d="M28.7717 7.4375C19.4279 7.4375 11.4498 13.475 8.50293 21.8125H49.1842C46.1654 13.475 38.1873 7.4375 28.7717 7.4375Z" fill="#F9F9F9"/>
<path d="M28.7717 50.5625C38.1873 50.5625 46.1654 44.525 49.1123 36.1875H8.50293C11.4498 44.5969 19.4279 50.5625 28.7717 50.5625Z" fill="#ED4C5C"/>
<path d="M8.50313 21.8125C7.7125 24.0406 7.28125 26.4844 7.28125 29C7.28125 31.5156 7.7125 33.9594 8.50313 36.1875H49.1844C49.975 33.9594 50.4062 31.5156 50.4062 29C50.4062 26.4844 49.975 24.0406 49.1844 21.8125H8.50313Z" fill="#428BC1"/>
</svg>
