<svg width="74" height="74" viewBox="0 0 74 74" fill="none" xmlns="http://www.w3.org/2000/svg">
<rect width="74" height="74" rx="37" fill="#EBF4FC"/>
<path d="M37 66.0625C53.0508 66.0625 66.0625 53.0508 66.0625 37C66.0625 20.9492 53.0508 7.9375 37 7.9375C20.9492 7.9375 7.9375 20.9492 7.9375 37C7.9375 53.0508 20.9492 66.0625 37 66.0625Z" fill="#ED4C5C"/>
<path d="M27.3125 33.5125L35.0625 38.9375L32.1562 30.025L39.9062 24.4062H30.3156L27.3125 15.6875L24.4062 24.4062H14.7188L22.4688 30.025L19.5625 38.9375L27.3125 33.5125ZM40.1969 40.1969L37.9688 40.6812L40.1 41.5531V43.7812L41.5531 42.1344L43.6844 42.9094L42.425 41.0688L43.7812 39.325L41.5531 39.8094L40.1969 37.9688V40.1969ZM43.4906 33.6094L41.8438 35.0625L44.0719 34.8687L45.0406 37L45.4281 34.7719L47.6562 34.5781L45.7188 33.4156L46.2031 31.1875L44.5562 32.6406L42.6187 31.4781L43.4906 33.6094ZM44.0719 26.0531L44.75 28.2812L45.4281 26.15H47.6562L45.9125 24.7937L46.5906 22.5656L44.75 23.9219L43.0063 22.4688L43.6844 24.6969L41.8438 25.9563L44.0719 26.0531ZM40.1969 18.3031V20.5312L41.5531 18.6906L43.7812 19.175L42.425 17.4313L43.6844 15.5906L41.5531 16.4625L40.1 14.7188V16.9469L37.9688 17.8187L40.1969 18.3031Z" fill="#FFE62E"/>
</svg>
