<svg width="74" height="74" viewBox="0 0 74 74" fill="none" xmlns="http://www.w3.org/2000/svg">
<rect width="74" height="74" rx="37" fill="#EBF4FC"/>
<path d="M66.0625 37C66.0625 24.3094 58.0219 13.5563 46.6875 9.58438V64.4156C58.0219 60.4438 66.0625 49.6906 66.0625 37Z" fill="#ED4C5C"/>
<path d="M7.9375 37C7.9375 49.6906 16.075 60.4438 27.3125 64.4156V9.58438C16.075 13.5563 7.9375 24.3094 7.9375 37Z" fill="#75A843"/>
<path d="M46.6875 9.58438C43.6844 8.51875 40.3906 7.9375 37 7.9375C33.6094 7.9375 30.3156 8.51875 27.3125 9.58438V64.4156C30.3156 65.4813 33.6094 66.0625 37 66.0625C40.3906 66.0625 43.6844 65.4813 46.6875 64.4156V9.58438Z" fill="white"/>
<path d="M45.4273 36.7094C45.3305 36.4188 45.2336 36.8063 45.2336 36.9031C45.2336 36.6125 45.1367 36.4188 44.943 36.1281C44.6523 36.4188 44.5555 36.8063 44.5555 37.1938C44.4586 36.9031 44.3617 36.6125 44.0711 36.5156C44.2648 36.8063 44.168 37 44.168 37.2906C44.168 37.6781 44.4586 37.9688 44.4586 38.3563C44.4586 38.7438 44.2648 39.0344 43.9742 39.325V39.0344C43.0055 39.4219 43.1992 39.9063 43.1992 40.7781C43.1992 41.65 42.7148 41.4563 42.1336 41.9406C42.2305 41.7469 42.2305 41.4563 42.1336 41.2625C42.1336 41.8438 41.3586 41.8438 41.2617 42.3281C41.1648 42.5219 41.2617 42.9094 40.9711 43.0063C40.7773 43.1031 40.4867 43.2969 40.4867 43.4906C40.293 43.3938 40.0992 43.3938 39.8086 43.3938C39.9055 43.2969 40.0023 43.2969 40.0992 43.2C39.1305 42.7156 38.8398 43.7813 37.968 43.8781C37.6773 43.8781 36.9992 43.4906 36.9992 43.8781C37.8711 43.8781 38.2586 44.6531 38.9367 44.6531C39.518 44.6531 40.0023 44.1688 40.5836 44.1688C40.4867 44.1688 40.1961 43.975 39.9055 43.975C40.3898 43.6844 40.6805 43.1031 41.2617 43.1031C42.2305 43.1031 42.7148 42.9094 43.0055 41.9406C42.9086 41.9406 42.8117 41.9406 42.7148 42.0375C42.7148 41.65 43.1023 41.1656 43.4898 40.9719C44.4586 40.7781 44.3617 40.0031 44.943 39.325C44.7492 39.325 44.5555 39.4219 44.3617 39.6156C44.3617 39.0344 44.2648 38.4531 44.7492 38.0656C45.718 37.5813 45.6211 37.3875 45.4273 36.7094ZM28.5711 36.7094C28.3773 37.4844 28.2805 37.6781 29.0555 38.1625C29.6367 38.55 29.443 39.1313 29.443 39.7125C29.2492 39.5188 29.1523 39.4219 28.8617 39.4219C29.443 40.0031 29.3461 40.875 30.3148 41.0688C30.6055 41.2625 31.0898 41.7469 31.0898 42.1344C30.993 42.1344 30.8961 42.0375 30.7992 42.0375C31.0898 43.0063 31.5742 43.2 32.543 43.2C33.1242 43.2 33.4148 43.7813 33.8992 44.0719C33.6086 44.0719 33.318 44.1688 33.2211 44.2656C33.8023 44.2656 34.2867 44.8469 34.868 44.75C35.5461 44.75 36.0305 43.975 36.8055 43.975C36.8055 43.5875 36.1273 43.975 35.8367 43.975C35.0617 43.7813 34.7711 42.8125 33.7055 43.2C33.8023 43.2969 33.8992 43.3938 33.9961 43.3938C33.8023 43.3938 33.5117 43.2969 33.318 43.4906C33.2211 43.2969 33.0273 43.1031 32.8336 43.0063C32.6398 42.8125 32.6398 42.5219 32.543 42.3281C32.3492 41.8438 31.6711 41.7469 31.6711 41.2625C31.5742 41.4563 31.5742 41.7469 31.6711 41.9406C31.0898 41.4563 30.6055 41.65 30.6055 40.7781C30.6055 40.0031 30.7992 39.4219 29.8305 39.0344V39.325C29.5398 39.0344 29.3461 38.8406 29.3461 38.3563C29.3461 37.9688 29.7336 37.6781 29.6367 37.2906C29.6367 37 29.5398 36.8063 29.7336 36.5156C29.443 36.6125 29.3461 36.9031 29.2492 37.1938C29.2492 36.8063 29.1523 36.4188 28.8617 36.1281C28.7648 36.3219 28.668 36.6125 28.5711 36.9031C28.668 36.7094 28.5711 36.4188 28.5711 36.7094Z" fill="#75A843"/>
<path d="M39.6168 42.5219C39.423 42.5219 39.3262 42.3281 39.2293 42.2312C39.2293 42.0375 40.0043 41.8437 40.1012 41.8437V41.65C38.8418 42.0375 35.0637 42.3281 34.2887 40.9719C33.9012 41.5531 33.223 41.1656 32.5449 40.6812C32.6418 40.875 33.0293 41.8437 33.0293 41.7469C33.223 41.8437 34.4824 42.1344 34.4824 42.425L34.1918 42.7156C36.2262 43.3937 37.4855 43.5875 39.6168 42.5219Z" fill="#428BC1"/>
<path d="M38.3563 42.5219C38.4531 42.425 38.4531 42.3281 38.4531 42.1344L38.3563 41.8437C38.55 41.65 38.3562 41.1656 38.0656 41.2625C37.8719 41.3594 37.9687 41.3594 37.775 41.2625C37.6781 41.2625 37.6781 41.1656 37.5812 41.1656H35.8375C35.6437 41.1656 35.6437 41.0687 35.45 41.0687C35.2562 40.9719 35.1594 41.1656 35.0625 41.2625C35.0625 41.4562 35.1594 41.4562 35.1594 41.5531C35.1594 41.65 35.0625 41.7469 35.0625 41.9406C35.0625 42.1344 35.1594 42.2312 35.2563 42.3281C34.8688 42.6187 35.2563 43.1031 35.6438 42.8125C35.7406 43.0062 36.0312 43.0062 36.3219 43.0062H37.3875C37.5813 43.0062 37.9687 43.1031 38.0656 42.8125C38.3562 43.2969 38.7438 42.7156 38.3563 42.5219Z" fill="#ED4C5C"/>
<path d="M41.4569 40.0031C40.6819 39.0344 40.2944 40.4875 39.4225 40.3906C39.6162 39.2281 37.8725 39.6156 37.3881 39.9063C37.485 39.8094 37.5819 39.6156 37.6787 39.4219C37.2912 39.4219 36.8069 39.6156 36.5162 39.325C35.935 38.9375 35.16 38.7438 34.6756 39.4219C34.2881 38.8406 33.2225 38.2594 32.6412 38.8406C32.6412 38.2594 32.06 37.3875 31.3819 37.4844C30.6069 37.5813 30.8975 38.55 31.285 38.9375C31.5756 39.2281 31.9631 39.325 32.3506 39.325C32.3506 39.5188 32.4475 39.6156 32.5444 39.7125C33.0287 40.1 33.9975 40.1969 34.4819 39.8094C34.4819 40.7781 36.4194 40.7781 36.9037 40.2938C36.71 40.7781 36.5162 41.7469 37.1944 41.7469C37.7756 41.7469 37.5819 41.1656 38.0662 40.9719C38.4537 40.7781 38.9381 40.6813 39.3256 40.875C40.0037 41.2625 42.135 41.1656 41.4569 40.0031Z" fill="#428BC1"/>
<path d="M33.5124 37.5813C33.4155 37.3875 33.2218 37.1938 33.2218 37.1938C32.8343 37.2906 32.8343 37 32.7374 36.7094C32.6405 36.225 31.9624 36.0313 31.9624 35.6438C31.9624 35.2563 32.3499 34.8688 32.0593 34.4813C31.7687 34.0938 31.2843 33.9 31.2843 34.0938C31.1874 34.2875 31.6718 34.2875 31.6718 34.7719C31.6718 35.3531 31.0905 35.8375 31.7687 36.3219C32.1562 36.9031 32.1562 37.9688 32.8343 37.9688C33.1249 37.9688 33.4155 37.8719 33.5124 37.5813Z" fill="#75A843"/>
<path d="M34.9658 37.0969C34.772 36.7094 34.9658 36.1281 34.5783 35.8375C34.0939 35.45 33.1252 36.225 33.0283 35.2563C33.0283 35.0625 34.0939 33.9 34.2877 33.8031C34.5783 33.4156 34.4814 32.7375 34.1908 32.5438C33.8033 32.35 33.7064 32.5438 33.4158 32.9313C33.5127 33.0281 33.9002 33.2219 33.9002 33.3188C33.6095 33.9969 32.7377 34.0938 32.5439 34.7719C32.3502 35.2563 32.447 36.0313 32.9314 36.3219C33.222 36.5156 33.4158 36.5156 33.7064 36.5156C34.5783 36.4188 34.0939 36.6125 34.1908 36.8063C34.1908 37 34.4814 37.6781 34.9658 37.0969ZM32.0595 32.35C32.0595 32.9313 32.6408 32.8344 33.0283 32.7375C33.0283 32.5438 33.0283 32.35 33.1252 32.1563C32.9314 32.2531 32.6408 32.2531 32.5439 32.1563C32.2533 31.9625 33.222 31.575 33.1252 31.575C33.1252 31.575 32.1564 32.0594 32.5439 31.4781C32.6408 31.2844 32.8345 31.0906 32.9314 30.8969C33.0283 30.7031 32.6408 30.8969 32.6408 30.8969C32.5439 30.8969 32.447 30.8969 32.3502 30.9938C31.7689 31.4781 31.9627 31.7688 32.0595 32.35Z" fill="#75A843"/>
<path d="M42.3279 32.35C41.8435 31.6719 40.0029 29.4438 37.3873 29.25C37.0967 29.25 36.3217 29.5406 36.031 29.6375C35.1592 30.2187 36.9998 30.7031 37.0967 31.0906C37.0967 31.2844 37.1935 31.3812 37.1935 31.575C36.9029 31.0906 36.6123 30.8 36.5154 30.6062C36.031 30.8 35.256 30.5094 35.1592 30.025C35.0623 30.2187 35.0623 30.3156 34.8685 30.5094C34.8685 30.2187 34.7717 30.2187 34.6748 30.025C34.6748 30.3156 34.6748 30.7031 34.3842 30.8C34.481 30.6063 34.3842 30.4125 34.2873 30.2188C34.2873 30.5094 34.2873 30.7031 34.0935 30.8969C34.1904 30.7031 33.9967 30.6063 33.9967 30.4125C33.8998 31.1875 32.8342 31.4781 33.8998 31.7688C34.2873 31.8656 34.481 31.7687 34.8685 31.9625C34.9654 32.0594 35.1592 32.2531 35.1592 32.1563C35.1592 32.2531 34.7717 32.6406 35.0623 32.7375C34.9654 32.8344 34.6748 33.4156 34.6748 33.4156C34.9654 33.4156 34.7717 33.6094 34.5779 33.8031C34.2873 34.2875 34.5779 34.7719 34.6748 35.3531C34.6748 35.1594 34.9654 35.45 34.9654 35.7406C34.9654 36.1281 35.3529 36.3219 35.4498 36.6125C34.9654 36.1281 34.8685 36.6125 35.4498 36.9031C34.9654 36.9031 34.8685 37.1938 35.3529 37.3875C34.1904 37.3875 35.1592 37.8719 35.3529 37.9688C36.1279 38.1625 36.7092 37.5813 36.7092 37.4844C36.7092 37.4844 38.2592 39.0344 38.356 39.0344C38.4529 39.0344 39.2279 38.6469 39.4217 38.8406C39.6154 39.1313 39.8092 38.8406 40.0029 38.9375C40.1967 39.1313 40.9717 38.9375 41.1654 38.8406C41.2623 38.8406 42.231 38.6469 42.0373 38.4531C41.5529 38.0656 40.9717 37.6781 40.4873 37.2906C40.0029 36.9031 39.5185 36.6125 39.131 36.225C38.9373 36.0313 38.9373 35.6437 38.8404 35.3531C39.7123 36.225 40.5842 36.7094 40.4873 35.0625C41.0685 35.5469 42.231 38.2594 42.3279 38.2594C42.6185 38.2594 42.3279 35.3531 42.3279 35.0625C42.7154 35.45 42.7154 38.6469 42.8123 38.6469C43.2967 38.7438 43.9748 34.4813 42.3279 32.35Z" fill="#89664C"/>
<path d="M35.3525 37.2906C35.2557 37.2906 34.7713 36.6125 34.7713 36.5156C35.0619 37.6781 33.8994 37 34.19 36.5156C33.8025 36.4187 32.8338 37 33.2213 37.5812C33.0275 37.9687 34.5775 37.6781 34.6744 37.4844C35.0619 38.3562 36.0307 37.3875 35.3525 37.2906ZM39.9057 40.1969C40.39 39.5187 38.3557 39.325 38.5494 38.55C38.2588 38.7437 37.8713 39.4219 37.4838 39.2281C37.29 39.1312 36.515 39.6156 36.9025 39.9062C36.9025 39.5187 37.0963 39.8094 37.3869 39.7125C37.29 40.0031 36.9994 40.2937 37.4838 40.4875C37.29 39.9062 38.065 40.1969 37.9682 39.9062C37.7744 39.7125 38.6463 39.7125 38.7432 39.7125C39.0338 39.7125 40.0025 40.0031 39.615 40.2937C39.615 40.2937 39.8088 40.2937 39.9057 40.1969ZM33.415 31.8656C33.3182 32.0594 32.9307 32.35 32.9307 32.6406C32.9307 32.8344 33.415 33.3187 33.6088 33.0281C33.0275 32.6406 33.7057 32.35 33.9963 32.35C34.0932 32.35 34.0932 32.5437 34.0932 32.5437C34.19 32.6406 34.965 32.35 34.8682 32.1562C34.965 31.7687 33.7057 31.7687 33.415 31.8656Z" fill="#FFCE31"/>
</svg>
