<svg width="58" height="58" viewBox="0 0 58 58" fill="none" xmlns="http://www.w3.org/2000/svg">
<rect width="58" height="58" rx="29" fill="#EBF4FC"/>
<path d="M29.8752 29L14.2783 44.5969C18.1596 48.2625 23.4064 50.5625 29.1564 50.5625C41.0877 50.5625 50.7189 40.9313 50.7189 29H29.8752Z" fill="#ED4C5C"/>
<path d="M50.7189 29C50.7189 17.0687 41.0877 7.4375 29.1564 7.4375C23.4064 7.4375 18.1596 9.7375 14.2783 13.4031L29.8752 29H50.7189Z" fill="#428BC1"/>
<path d="M14.2781 13.4031C10.1813 17.3563 7.59375 22.8906 7.59375 29C7.59375 35.1094 10.1813 40.6438 14.2781 44.5969L29.875 29L14.2781 13.4031Z" fill="#F9F9F9"/>
<path d="M15.4998 15.775L14.9248 16.7813L15.7154 17.5719L14.6373 17.4281L14.0623 18.4344L13.9186 17.3563L12.8404 17.2125L13.8467 16.6375L13.7029 15.5594L14.4936 16.35L15.4998 15.775ZM15.6436 40.5L14.8529 41.3625L15.4279 42.2969L14.4217 41.8656L13.6311 42.7281L13.7748 41.5781L12.6967 41.1469L13.8467 40.9313L13.9904 39.7813L14.5654 40.7875L15.6436 40.5ZM28.0779 29L26.9998 29.3594V30.4375L26.2811 29.575L25.2029 29.8625L25.9217 29L25.2029 28.1375L26.2811 28.425L26.9998 27.5625V28.6406L28.0779 29ZM23.1904 27.9219L22.7592 27.5625L18.0873 28.5688H18.1592L22.5436 27.4188L21.9686 27.0594L18.2311 28.4969L21.3217 25.9094L21.2498 25.2625L18.0154 28.5688H17.9436L21.1779 24.975L21.1061 24.4719L20.6029 24.5438L17.7279 28.2813V28.2094L20.3873 24.4L19.7404 24.4719L17.7998 27.9938L18.5186 23.9688L18.0873 23.5375L17.6561 28.2094V28.2813L17.7998 23.3938L17.4404 23.0344L17.0811 23.3938L17.2248 28.2813V28.2094L16.8654 23.6094L16.4342 24.0406L17.1529 28.0656L15.2123 24.5438L14.5654 24.4719L17.2248 28.2813V28.3531L14.2779 24.4719L13.7748 24.4L13.7029 24.9031L16.9373 28.4969H16.8654L13.6311 25.1906L13.5592 25.8375L16.6498 28.425L12.9123 26.9875L12.4092 27.3469L16.7936 28.4969H16.8654L12.1217 27.5625L11.6904 27.85L11.9779 28.2813L16.7217 28.9281H16.6498L12.1217 28.4969L12.4811 29L16.5061 28.9281L12.7686 30.4375L12.6248 31.0844L16.7217 29.0719H16.7936L12.5529 31.3719L12.4092 31.875L12.9123 32.0188L17.0092 29.4313V29.5031L13.2717 32.1625L13.8467 32.3063L16.8654 29.6469L14.7811 33.1688L15.0686 33.7438L16.9373 29.575L17.0092 29.5031L15.2123 34.0313L15.4279 34.5344L15.9311 34.3188L17.4404 29.6469V29.7188L16.2186 34.175L16.7936 33.8875L17.4404 29.8625L18.0873 33.8875L18.6623 34.175L17.4404 29.7188V29.6469L18.9498 34.3188L19.4529 34.5344L19.6686 34.0313L17.8717 29.5031L17.9436 29.575L19.8123 33.7438L20.0998 33.1688L18.0873 29.6469L21.1061 32.3063L21.6811 32.1625L17.9436 29.5031V29.4313L22.0404 32.0188L22.5436 31.875L22.3998 31.3719L18.1592 29.0719H18.2311L22.3279 31.0844L22.1123 30.4375L18.3029 29.0719L22.3279 29.1438L22.6873 28.6406L18.1592 29.0719H18.0873L22.8311 28.425L23.1904 27.9219Z" fill="#FFCE31"/>
<path d="M17.4404 32.2344C19.2267 32.2344 20.6748 30.7863 20.6748 29C20.6748 27.2137 19.2267 25.7656 17.4404 25.7656C15.6541 25.7656 14.2061 27.2137 14.2061 29C14.2061 30.7863 15.6541 32.2344 17.4404 32.2344Z" fill="#FFCE31"/>
</svg>
