<svg width="74" height="74" viewBox="0 0 74 74" fill="none" xmlns="http://www.w3.org/2000/svg">
<rect width="74" height="74" rx="37" fill="#EBF4FC"/>
<path d="M36.8051 7.9375C24.2113 7.9375 13.4582 16.075 9.48633 27.3125H64.3176C60.2488 16.075 49.4957 7.9375 36.8051 7.9375Z" fill="#F2B200"/>
<path d="M36.8051 66.0625C49.4957 66.0625 60.2488 58.0219 64.2207 46.6875H9.48633C13.4582 58.0219 24.2113 66.0625 36.8051 66.0625Z" fill="#83BF4F"/>
<path d="M9.48867 27.3125C8.42305 30.3156 7.8418 33.6094 7.8418 37C7.8418 40.3906 8.42305 43.6844 9.48867 46.6875H64.3199C65.3855 43.6844 65.9668 40.3906 65.9668 37C65.9668 33.6094 65.3855 30.3156 64.3199 27.3125H9.48867Z" fill="white"/>
<path d="M36.8057 44.75C41.0859 44.75 44.5557 41.2802 44.5557 37C44.5557 32.7198 41.0859 29.25 36.8057 29.25C32.5255 29.25 29.0557 32.7198 29.0557 37C29.0557 41.2802 32.5255 44.75 36.8057 44.75Z" fill="#428BC1"/>
<path d="M36.8057 43.7812C40.5508 43.7812 43.5869 40.7452 43.5869 37C43.5869 33.2548 40.5508 30.2188 36.8057 30.2188C33.0605 30.2188 30.0244 33.2548 30.0244 37C30.0244 40.7452 33.0605 43.7812 36.8057 43.7812Z" fill="white"/>
<path d="M34.2871 31.1875C34.5546 31.1875 34.7715 30.9707 34.7715 30.7032C34.7715 30.4356 34.5546 30.2188 34.2871 30.2188C34.0196 30.2188 33.8027 30.4356 33.8027 30.7032C33.8027 30.9707 34.0196 31.1875 34.2871 31.1875Z" fill="#428BC1"/>
<path d="M32.7373 32.0594C33.0048 32.0594 33.2217 31.8425 33.2217 31.575C33.2217 31.3075 33.0048 31.0906 32.7373 31.0906C32.4698 31.0906 32.2529 31.3075 32.2529 31.575C32.2529 31.8425 32.4698 32.0594 32.7373 32.0594Z" fill="#428BC1"/>
<path d="M31.4785 33.3188C31.746 33.3188 31.9629 33.1019 31.9629 32.8344C31.9629 32.5669 31.746 32.35 31.4785 32.35C31.211 32.35 30.9941 32.5669 30.9941 32.8344C30.9941 33.1019 31.211 33.3188 31.4785 33.3188Z" fill="#428BC1"/>
<path d="M30.6064 34.8688C30.874 34.8688 31.0908 34.6519 31.0908 34.3844C31.0908 34.1169 30.874 33.9 30.6064 33.9C30.3389 33.9 30.1221 34.1169 30.1221 34.3844C30.1221 34.6519 30.3389 34.8688 30.6064 34.8688Z" fill="#428BC1"/>
<path d="M30.1221 36.6125C30.3896 36.6125 30.6064 36.3957 30.6064 36.1281C30.6064 35.8606 30.3896 35.6438 30.1221 35.6438C29.8546 35.6438 29.6377 35.8606 29.6377 36.1281C29.6377 36.3957 29.8546 36.6125 30.1221 36.6125Z" fill="#428BC1"/>
<path d="M30.1221 38.3563C30.3896 38.3563 30.6064 38.1394 30.6064 37.8719C30.6064 37.6044 30.3896 37.3875 30.1221 37.3875C29.8546 37.3875 29.6377 37.6044 29.6377 37.8719C29.6377 38.1394 29.8546 38.3563 30.1221 38.3563Z" fill="#428BC1"/>
<path d="M30.6064 40.1C30.874 40.1 31.0908 39.8832 31.0908 39.6157C31.0908 39.3481 30.874 39.1313 30.6064 39.1313C30.3389 39.1313 30.1221 39.3481 30.1221 39.6157C30.1221 39.8832 30.3389 40.1 30.6064 40.1Z" fill="#428BC1"/>
<path d="M31.4785 41.65C31.746 41.65 31.9629 41.4332 31.9629 41.1656C31.9629 40.8981 31.746 40.6813 31.4785 40.6813C31.211 40.6813 30.9941 40.8981 30.9941 41.1656C30.9941 41.4332 31.211 41.65 31.4785 41.65Z" fill="#428BC1"/>
<path d="M32.7373 42.9094C33.0048 42.9094 33.2217 42.6925 33.2217 42.425C33.2217 42.1575 33.0048 41.9406 32.7373 41.9406C32.4698 41.9406 32.2529 42.1575 32.2529 42.425C32.2529 42.6925 32.4698 42.9094 32.7373 42.9094Z" fill="#428BC1"/>
<path d="M34.2871 43.7813C34.5546 43.7813 34.7715 43.5644 34.7715 43.2969C34.7715 43.0294 34.5546 42.8125 34.2871 42.8125C34.0196 42.8125 33.8027 43.0294 33.8027 43.2969C33.8027 43.5644 34.0196 43.7813 34.2871 43.7813Z" fill="#428BC1"/>
<path d="M35.9346 44.1688C36.2021 44.1688 36.4189 43.9519 36.4189 43.6844C36.4189 43.4169 36.2021 43.2 35.9346 43.2C35.6671 43.2 35.4502 43.4169 35.4502 43.6844C35.4502 43.9519 35.6671 44.1688 35.9346 44.1688Z" fill="#428BC1"/>
<path d="M37.291 43.7813C37.291 43.4907 37.4848 43.2969 37.6785 43.2C37.9691 43.2 38.1629 43.3938 38.2598 43.5875C38.2598 43.8782 38.066 44.0719 37.8723 44.1688C37.4848 44.2657 37.291 44.0719 37.291 43.7813Z" fill="#428BC1"/>
<path d="M39.4209 43.7813C39.6884 43.7813 39.9053 43.5644 39.9053 43.2969C39.9053 43.0294 39.6884 42.8125 39.4209 42.8125C39.1534 42.8125 38.9365 43.0294 38.9365 43.2969C38.9365 43.5644 39.1534 43.7813 39.4209 43.7813Z" fill="#428BC1"/>
<path d="M40.9717 42.9094C41.2392 42.9094 41.4561 42.6925 41.4561 42.425C41.4561 42.1575 41.2392 41.9406 40.9717 41.9406C40.7042 41.9406 40.4873 42.1575 40.4873 42.425C40.4873 42.6925 40.7042 42.9094 40.9717 42.9094Z" fill="#428BC1"/>
<path d="M42.2314 41.65C42.499 41.65 42.7158 41.4332 42.7158 41.1656C42.7158 40.8981 42.499 40.6813 42.2314 40.6813C41.9639 40.6813 41.7471 40.8981 41.7471 41.1656C41.7471 41.4332 41.9639 41.65 42.2314 41.65Z" fill="#428BC1"/>
<path d="M43.1035 40.1C43.371 40.1 43.5879 39.8832 43.5879 39.6157C43.5879 39.3481 43.371 39.1313 43.1035 39.1313C42.836 39.1313 42.6191 39.3481 42.6191 39.6157C42.6191 39.8832 42.836 40.1 43.1035 40.1Z" fill="#428BC1"/>
<path d="M43.5879 38.3563C43.8554 38.3563 44.0723 38.1394 44.0723 37.8719C44.0723 37.6044 43.8554 37.3875 43.5879 37.3875C43.3204 37.3875 43.1035 37.6044 43.1035 37.8719C43.1035 38.1394 43.3204 38.3563 43.5879 38.3563Z" fill="#428BC1"/>
<path d="M43.5871 36.6125C43.2965 36.6125 43.1027 36.4188 43.0059 36.225C43.0059 35.9344 43.1996 35.7407 43.3934 35.6438C43.684 35.6438 43.8777 35.8375 43.9746 36.0313C44.0715 36.3219 43.8777 36.5157 43.5871 36.6125Z" fill="#428BC1"/>
<path d="M43.1035 34.8688C43.371 34.8688 43.5879 34.6519 43.5879 34.3844C43.5879 34.1169 43.371 33.9 43.1035 33.9C42.836 33.9 42.6191 34.1169 42.6191 34.3844C42.6191 34.6519 42.836 34.8688 43.1035 34.8688Z" fill="#428BC1"/>
<path d="M42.2314 33.3188C42.499 33.3188 42.7158 33.1019 42.7158 32.8344C42.7158 32.5669 42.499 32.35 42.2314 32.35C41.9639 32.35 41.7471 32.5669 41.7471 32.8344C41.7471 33.1019 41.9639 33.3188 42.2314 33.3188Z" fill="#428BC1"/>
<path d="M40.9717 32.0594C41.2392 32.0594 41.4561 31.8425 41.4561 31.575C41.4561 31.3075 41.2392 31.0906 40.9717 31.0906C40.7042 31.0906 40.4873 31.3075 40.4873 31.575C40.4873 31.8425 40.7042 32.0594 40.9717 32.0594Z" fill="#428BC1"/>
<path d="M39.9064 30.8969C39.8096 31.1875 39.5189 31.2844 39.2283 31.1875C38.9377 31.0906 38.8408 30.8 38.9377 30.5094C39.0346 30.2188 39.3252 30.1219 39.6158 30.2188C39.9064 30.4125 40.0033 30.7031 39.9064 30.8969ZM38.1627 30.3156C38.1627 30.6063 37.8721 30.8 37.5814 30.7031C37.2908 30.7031 37.0971 30.4125 37.1939 30.1219C37.1939 29.8313 37.4846 29.6375 37.7752 29.7344C38.0658 29.8313 38.2596 30.1219 38.1627 30.3156ZM36.4189 30.2188C36.4189 30.5094 36.2252 30.7031 36.0314 30.8C35.7408 30.8 35.5471 30.6063 35.4502 30.4125C35.4502 30.1219 35.6439 29.9281 35.8377 29.8313C36.1283 29.7344 36.4189 29.9281 36.4189 30.2188Z" fill="#428BC1"/>
<path d="M36.8066 38.4531C37.6092 38.4531 38.2598 37.8025 38.2598 37C38.2598 36.1975 37.6092 35.5469 36.8066 35.5469C36.0041 35.5469 35.3535 36.1975 35.3535 37C35.3535 37.8025 36.0041 38.4531 36.8066 38.4531Z" fill="#428BC1"/>
<path d="M36.8053 30.2188L36.6115 34.3844L36.8053 37L37.0959 34.3844L36.8053 30.2188ZM35.0615 30.4125L35.9334 34.5782L36.8053 37L36.4178 34.3844L35.0615 30.4125Z" fill="#428BC1"/>
<path d="M33.4158 31.0906L35.3533 34.8688L36.8064 37L35.7408 34.5781L33.4158 31.0906ZM32.0596 32.1563L34.8689 35.3531L36.8064 37L35.1596 34.9656L32.0596 32.1563Z" fill="#428BC1"/>
<path d="M30.9941 33.6094L34.4816 35.9344L36.8066 37L34.6754 35.45L30.9941 33.6094Z" fill="#428BC1"/>
<path d="M30.316 35.2563L34.2879 36.5157L36.8066 37L34.3848 36.1282L30.316 35.2563ZM30.0254 37L34.2879 37.1938L36.8066 37L34.2879 36.8063L30.0254 37Z" fill="#428BC1"/>
<path d="M30.3154 38.7438L34.3842 37.8719L36.8061 37L34.2873 37.4844L30.3154 38.7438ZM30.9936 40.3907L34.6748 38.55L36.8061 37L34.4811 38.0657L30.9936 40.3907Z" fill="#428BC1"/>
<path d="M32.0596 41.7469L35.1596 39.0344L36.8064 37L34.8689 38.6469L32.0596 41.7469ZM33.4158 42.9094L35.7408 39.325L36.8064 37L35.3533 39.1313L33.4158 42.9094Z" fill="#428BC1"/>
<path d="M35.0615 43.5875L36.4178 39.6157L36.8053 37L35.9334 39.4219L35.0615 43.5875ZM36.8053 43.7813L37.0959 39.6157L36.8053 37L36.6115 39.6157L36.8053 43.7813ZM38.549 43.5875L37.774 39.4219L36.8053 37L37.2896 39.6157L38.549 43.5875Z" fill="#428BC1"/>
<path d="M40.1973 42.9094L38.3566 39.1313L36.8066 37L37.9691 39.4219L40.1973 42.9094ZM41.6504 41.7469L38.841 38.6469L36.8066 37L38.5504 39.0344L41.6504 41.7469Z" fill="#428BC1"/>
<path d="M42.716 40.3907L39.2285 38.0657L36.8066 37L38.9379 38.55L42.716 40.3907ZM43.3941 38.7438L39.4223 37.4844L36.8066 37L39.3254 37.8719L43.3941 38.7438ZM43.5879 37L39.4223 36.7094L36.8066 37L39.4223 37.1938L43.5879 37ZM43.3941 35.2563L39.3254 36.1282L36.8066 37L39.4223 36.5157L43.3941 35.2563Z" fill="#428BC1"/>
<path d="M42.716 33.6094L38.9379 35.45L36.8066 37L39.2285 35.9344L42.716 33.6094ZM41.6504 32.2531L38.5504 34.9656L36.8066 37L38.841 35.3531L41.6504 32.2531Z" fill="#428BC1"/>
<path d="M40.1973 31.0907L37.9691 34.675L36.8066 37L38.3566 34.8688L40.1973 31.0907Z" fill="#428BC1"/>
<path d="M38.6473 30.4125L37.291 34.3844L36.8066 37L37.7754 34.5782L38.6473 30.4125Z" fill="#428BC1"/>
</svg>
