<svg width="74" height="74" viewBox="0 0 74 74" fill="none" xmlns="http://www.w3.org/2000/svg">
<rect width="74" height="74" rx="37" fill="#EBF4FC"/>
<path d="M37.0004 7.9375C27.0223 7.9375 18.3035 12.8781 13.0723 20.5312H60.9285C55.6973 12.8781 46.9785 7.9375 37.0004 7.9375ZM37.0004 66.0625C46.9785 66.0625 55.6973 61.1219 60.9285 53.4688H13.0723C18.3035 61.1219 27.0223 66.0625 37.0004 66.0625Z" fill="#2A5F9E"/>
<path d="M63.1562 24.4062H10.8438C9.00313 28.1844 7.9375 32.4469 7.9375 37C7.9375 41.5531 9.00313 45.8156 10.8438 49.5938H63.1562C64.9969 45.8156 66.0625 41.5531 66.0625 37C66.0625 32.4469 64.9969 28.1844 63.1562 24.4062Z" fill="#ED4C5C"/>
<path d="M10.8438 49.5938C11.5219 50.95 12.2969 52.2094 13.0719 53.4688H60.9281C61.8 52.2094 62.575 50.95 63.1562 49.5938H10.8438ZM63.1562 24.4062C62.4781 23.05 61.7031 21.7906 60.9281 20.5312H13.0719C12.2 21.7906 11.425 23.05 10.8438 24.4062H63.1562Z" fill="white"/>
<path d="M23.4375 47.6562C29.3228 47.6562 34.0938 42.8853 34.0938 37C34.0938 31.1147 29.3228 26.3438 23.4375 26.3438C17.5522 26.3438 12.7812 31.1147 12.7812 37C12.7812 42.8853 17.5522 47.6562 23.4375 47.6562Z" fill="white"/>
<path d="M23.4375 40.7781L28.1844 44.4594L26.4406 38.55L31.1875 34.8688H25.2781L23.4375 28.9594L21.5969 34.8688H15.6875L20.4344 38.55L18.6906 44.4594L23.4375 40.7781Z" fill="#ED4C5C"/>
</svg>
