<svg width="58" height="58" viewBox="0 0 58 58" fill="none" xmlns="http://www.w3.org/2000/svg">
<rect width="58" height="58" rx="29" fill="#EBF4FC"/>
<path d="M34.1031 8.08438V25.8375H7.65312C7.50937 26.8438 7.4375 27.9219 7.4375 29C7.4375 40.9313 17.0687 50.5625 29 50.5625C40.9313 50.5625 50.5625 40.9313 50.5625 29C50.5625 18.8656 43.5187 10.3844 34.1031 8.08438Z" fill="#2A5F9E"/>
<path d="M34.1033 8.08436C33.9596 8.01249 33.8158 8.01249 33.6721 8.01249V25.4062H24.4002V7.94061C20.9502 8.65936 17.7877 10.3125 15.1283 12.4687V25.4062H7.7252C7.7252 25.55 7.65332 25.6937 7.65332 25.8375H34.1033V8.08436Z" fill="white"/>
<path d="M7.72559 25.4062H15.1287V12.4688C11.3193 15.7031 8.58809 20.2313 7.72559 25.4062Z" fill="#2A5F9E"/>
<path d="M24.3994 7.94063V25.4062H33.6713V7.94063C32.1619 7.58125 30.5807 7.4375 28.9994 7.4375C27.4182 7.4375 25.9088 7.58125 24.3994 7.94063Z" fill="#ED4C5C"/>
<path d="M36.7615 37.4812V34.1031H38.1271L39.1334 32.45H36.6896V31.3718H39.7803L40.8584 29.6469H30.6521L31.7303 31.3718H34.8209V37.4094L32.5209 33.7437L29.3584 38.7031H30.8678L31.1553 38.1281H33.7428L35.7553 41.7219L37.7678 38.1281H40.3553L40.6428 38.7031H42.1521L38.9896 33.7437L36.7615 37.4812ZM31.874 37.05L32.5209 35.9L33.1678 37.05H31.874ZM38.4865 37.05L39.1334 35.9L39.7803 37.05H38.4865ZM36.1865 44.2375L35.8271 43.0156L35.3959 44.2375H34.1021L35.1803 45.0281L34.749 46.25L35.8271 45.4594L36.8334 46.25L36.474 45.0281L37.4803 44.2375H36.1865ZM32.3771 41.3625L32.0178 40.1406L31.5865 41.3625H30.2928L31.3709 42.1531L30.9396 43.375L32.0178 42.5844L33.024 43.375L32.6646 42.1531L33.6709 41.3625H32.3771ZM39.9959 41.3625L39.6365 40.1406L39.2053 41.3625H37.9115L38.9896 42.1531L38.5584 43.375L39.6365 42.5844L40.6428 43.375L40.2834 42.1531L41.2896 41.3625H39.9959Z" fill="white"/>
<path d="M28.784 34.0312L29.8621 34.8218L29.4309 33.6L30.509 32.8093H29.2152L28.784 31.5875L28.4246 32.8093H27.1309L28.1371 33.6L27.7777 34.8218L28.784 34.0312ZM43.5184 33.6L44.5246 32.8093H43.2309L42.8715 31.5875L42.4402 32.8093H41.1465L42.2246 33.6L41.7934 34.8218L42.8715 34.0312L43.8777 34.8218L43.5184 33.6Z" fill="white"/>
</svg>
