<svg width="58" height="58" viewBox="0 0 58 58" fill="none" xmlns="http://www.w3.org/2000/svg">
<rect width="58" height="58" rx="29" fill="#EBF4FC"/>
<path d="M19.1562 46.0625V11.9375C13.25 15.35 9.3125 21.7156 9.3125 29C9.3125 36.2844 13.25 42.65 19.1562 46.0625Z" fill="#699635"/>
<path d="M29 9.3125C25.3906 9.3125 22.0438 10.2969 19.1562 11.9375V46.0625C22.0438 47.7687 25.3906 48.6875 29 48.6875C39.8938 48.6875 48.6875 39.8938 48.6875 29C48.6875 18.1062 39.8938 9.3125 29 9.3125Z" fill="#ED4C5C"/>
<path d="M19.1553 21.125C14.824 21.125 11.2803 24.6688 11.2803 29C11.2803 33.3313 14.824 36.875 19.1553 36.875C23.4865 36.875 27.0303 33.3313 27.0303 29C27.0303 24.6688 23.4865 21.125 19.1553 21.125ZM19.1553 35.8906C15.349 35.8906 12.2646 32.8063 12.2646 29C12.2646 25.1937 15.349 22.1094 19.1553 22.1094C22.9615 22.1094 26.0459 25.1937 26.0459 29C26.0459 32.8063 22.9615 35.8906 19.1553 35.8906Z" fill="#FFE62E"/>
<path d="M21.8463 36.6781C21.715 36.8094 21.5182 36.8094 21.3869 36.6781L12.3963 24.8C12.265 24.6688 12.265 24.4719 12.3963 24.3406L12.5932 24.1438C12.7244 24.0125 12.9213 24.0125 13.0525 24.1438L22.0432 36.0219C22.1744 36.1531 22.1744 36.35 22.0432 36.4813L21.8463 36.6781Z" fill="#FFE62E"/>
<path d="M19.2861 20.7969C19.483 20.7969 19.6143 20.9281 19.6143 21.125V36.875C19.6143 37.0719 19.483 37.2031 19.2861 37.2031H18.958C18.7611 37.2031 18.6299 37.0719 18.6299 36.875V21.125C18.6299 20.9281 18.7611 20.7969 18.958 20.7969H19.2861Z" fill="#FFE62E"/>
<path d="M26.9647 29.8531L19.1553 28.475V29.4594L26.8335 30.8375C27.0303 30.8375 27.1616 30.7719 27.2272 30.575L27.2928 30.2469C27.2928 30.1156 27.1616 29.9188 26.9647 29.8531ZM19.1553 28.4094L12.9866 24.0781C12.8553 23.9469 12.6585 24.0125 12.5272 24.1438L12.3303 24.4063C12.1991 24.5375 12.2647 24.7344 12.396 24.8656L19.1553 29.5906V28.4094Z" fill="#FFE62E"/>
<path d="M18.8928 27.6875L12.7241 33.8563C12.5928 33.9875 12.5928 34.1844 12.7241 34.3156L12.9866 34.5781C13.1178 34.7094 13.3147 34.7094 13.446 34.5781L18.8928 29.1313V27.6875ZM19.1553 24.7344L10.9522 28.6062C10.821 28.6719 10.6897 28.8687 10.821 29.0656L10.9522 29.3937C11.0178 29.525 11.2147 29.6562 11.4116 29.525L19.1553 25.85V24.7344Z" fill="#FFE62E"/>
<path d="M26.4393 25.85L18.6299 24.4719V25.4563L26.308 26.8344C26.5049 26.8344 26.6361 26.7688 26.7018 26.5719L26.7674 26.2438C26.7018 26.0469 26.5705 25.85 26.4393 25.85ZM19.0893 33.5281C18.958 33.5938 18.8268 33.7906 18.958 33.9875L19.0893 34.3156C19.1549 34.4469 19.3518 34.5781 19.5486 34.4469L26.1111 31.4281L26.4393 30.1813L19.0893 33.5281ZM19.0893 31.2969L11.7393 28.6063V29.6563L19.0893 32.3469V31.2969Z" fill="#FFE62E"/>
<path d="M13.9707 33.4625V34.4469L23.6832 35.1031C24.077 34.8406 24.4051 34.5125 24.7332 34.1844L13.9707 33.4625Z" fill="#FFE62E"/>
<path d="M15.875 25.7188V30.3125C15.875 32.15 17.3188 33.5938 19.1562 33.5938C20.9938 33.5938 22.4375 32.15 22.4375 30.3125V25.7188H15.875Z" fill="white"/>
<path d="M19.1562 34.9062C16.5969 34.9062 14.5625 32.8719 14.5625 30.3125V24.4062H23.75V30.3125C23.75 32.8719 21.7156 34.9062 19.1562 34.9062ZM17.1875 27.0312V30.3125C17.1875 31.4281 18.0406 32.2812 19.1562 32.2812C20.2719 32.2812 21.125 31.4281 21.125 30.3125V27.0312H17.1875Z" fill="#ED4C5C"/>
<path d="M18.5654 27.2937V28.3437C18.5654 28.5406 18.6967 28.6719 18.8936 28.6719H19.4186C19.6154 28.6719 19.7467 28.5406 19.7467 28.3437V27.2281H18.5654V27.2937ZM18.5654 28.9344V30.05C18.5654 30.2469 18.6967 30.3781 18.8936 30.3781H19.4186C19.6154 30.3781 19.7467 30.2469 19.7467 30.05V28.9344H18.5654ZM17.2529 28.9344V30.05C17.2529 30.2469 17.3842 30.3781 17.5811 30.3781H18.1061C18.3029 30.3781 18.4342 30.2469 18.4342 30.05V28.9344H17.2529ZM19.8779 28.9344V30.05C19.8779 30.2469 20.0092 30.3781 20.2061 30.3781H20.7311C20.9279 30.3781 21.0592 30.2469 21.0592 30.05V28.9344H19.8779ZM18.5654 30.5094V31.625C18.5654 31.8219 18.6967 31.9531 18.8936 31.9531H19.4186C19.6154 31.9531 19.7467 31.8219 19.7467 31.625V30.5094H18.5654Z" fill="#0071BC"/>
<path d="M19.1566 29.7219C19.2291 29.7219 19.2879 29.6631 19.2879 29.5906C19.2879 29.5181 19.2291 29.4594 19.1566 29.4594C19.0842 29.4594 19.0254 29.5181 19.0254 29.5906C19.0254 29.6631 19.0842 29.7219 19.1566 29.7219Z" fill="white"/>
<path d="M18.8939 30.05C18.9664 30.05 19.0252 29.9912 19.0252 29.9188C19.0252 29.8463 18.9664 29.7875 18.8939 29.7875C18.8215 29.7875 18.7627 29.8463 18.7627 29.9188C18.7627 29.9912 18.8215 30.05 18.8939 30.05Z" fill="white"/>
<path d="M19.4193 30.05C19.4918 30.05 19.5506 29.9912 19.5506 29.9188C19.5506 29.8463 19.4918 29.7875 19.4193 29.7875C19.3468 29.7875 19.2881 29.8463 19.2881 29.9188C19.2881 29.9912 19.3468 30.05 19.4193 30.05Z" fill="white"/>
<path d="M18.8939 29.3938C18.9664 29.3938 19.0252 29.335 19.0252 29.2625C19.0252 29.19 18.9664 29.1313 18.8939 29.1313C18.8215 29.1313 18.7627 29.19 18.7627 29.2625C18.7627 29.335 18.8215 29.3938 18.8939 29.3938Z" fill="white"/>
<path d="M19.4193 29.3938C19.4918 29.3938 19.5506 29.335 19.5506 29.2625C19.5506 29.19 19.4918 29.1313 19.4193 29.1313C19.3468 29.1313 19.2881 29.19 19.2881 29.2625C19.2881 29.335 19.3468 29.3938 19.4193 29.3938Z" fill="white"/>
<path d="M19.1566 28.0813C19.2291 28.0813 19.2879 28.0225 19.2879 27.95C19.2879 27.8775 19.2291 27.8188 19.1566 27.8188C19.0842 27.8188 19.0254 27.8775 19.0254 27.95C19.0254 28.0225 19.0842 28.0813 19.1566 28.0813Z" fill="white"/>
<path d="M18.8939 28.4094C18.9664 28.4094 19.0252 28.3506 19.0252 28.2781C19.0252 28.2056 18.9664 28.1469 18.8939 28.1469C18.8215 28.1469 18.7627 28.2056 18.7627 28.2781C18.7627 28.3506 18.8215 28.4094 18.8939 28.4094Z" fill="white"/>
<path d="M19.4193 28.4094C19.4918 28.4094 19.5506 28.3506 19.5506 28.2781C19.5506 28.2056 19.4918 28.1469 19.4193 28.1469C19.3468 28.1469 19.2881 28.2056 19.2881 28.2781C19.2881 28.3506 19.3468 28.4094 19.4193 28.4094Z" fill="white"/>
<path d="M18.8939 27.7531C18.9664 27.7531 19.0252 27.6944 19.0252 27.6219C19.0252 27.5494 18.9664 27.4906 18.8939 27.4906C18.8215 27.4906 18.7627 27.5494 18.7627 27.6219C18.7627 27.6944 18.8215 27.7531 18.8939 27.7531Z" fill="white"/>
<path d="M19.4193 27.7531C19.4918 27.7531 19.5506 27.6944 19.5506 27.6219C19.5506 27.5494 19.4918 27.4906 19.4193 27.4906C19.3468 27.4906 19.2881 27.5494 19.2881 27.6219C19.2881 27.6944 19.3468 27.7531 19.4193 27.7531Z" fill="white"/>
<path d="M20.4691 29.7219C20.5416 29.7219 20.6004 29.6631 20.6004 29.5906C20.6004 29.5181 20.5416 29.4594 20.4691 29.4594C20.3967 29.4594 20.3379 29.5181 20.3379 29.5906C20.3379 29.6631 20.3967 29.7219 20.4691 29.7219Z" fill="white"/>
<path d="M20.2064 30.05C20.2789 30.05 20.3377 29.9912 20.3377 29.9188C20.3377 29.8463 20.2789 29.7875 20.2064 29.7875C20.134 29.7875 20.0752 29.8463 20.0752 29.9188C20.0752 29.9912 20.134 30.05 20.2064 30.05Z" fill="white"/>
<path d="M20.7318 30.05C20.8043 30.05 20.8631 29.9912 20.8631 29.9188C20.8631 29.8463 20.8043 29.7875 20.7318 29.7875C20.6593 29.7875 20.6006 29.8463 20.6006 29.9188C20.6006 29.9912 20.6593 30.05 20.7318 30.05Z" fill="white"/>
<path d="M20.2064 29.3938C20.2789 29.3938 20.3377 29.335 20.3377 29.2625C20.3377 29.19 20.2789 29.1313 20.2064 29.1313C20.134 29.1313 20.0752 29.19 20.0752 29.2625C20.0752 29.335 20.134 29.3938 20.2064 29.3938Z" fill="white"/>
<path d="M20.7318 29.3938C20.8043 29.3938 20.8631 29.335 20.8631 29.2625C20.8631 29.19 20.8043 29.1313 20.7318 29.1313C20.6593 29.1313 20.6006 29.19 20.6006 29.2625C20.6006 29.335 20.6593 29.3938 20.7318 29.3938Z" fill="white"/>
<path d="M17.8441 29.7219C17.9166 29.7219 17.9754 29.6631 17.9754 29.5906C17.9754 29.5181 17.9166 29.4594 17.8441 29.4594C17.7717 29.4594 17.7129 29.5181 17.7129 29.5906C17.7129 29.6631 17.7717 29.7219 17.8441 29.7219Z" fill="white"/>
<path d="M17.5814 30.05C17.6539 30.05 17.7127 29.9912 17.7127 29.9188C17.7127 29.8463 17.6539 29.7875 17.5814 29.7875C17.509 29.7875 17.4502 29.8463 17.4502 29.9188C17.4502 29.9912 17.509 30.05 17.5814 30.05Z" fill="white"/>
<path d="M18.1068 30.05C18.1793 30.05 18.2381 29.9912 18.2381 29.9188C18.2381 29.8463 18.1793 29.7875 18.1068 29.7875C18.0343 29.7875 17.9756 29.8463 17.9756 29.9188C17.9756 29.9912 18.0343 30.05 18.1068 30.05Z" fill="white"/>
<path d="M17.5814 29.3938C17.6539 29.3938 17.7127 29.335 17.7127 29.2625C17.7127 29.19 17.6539 29.1313 17.5814 29.1313C17.509 29.1313 17.4502 29.19 17.4502 29.2625C17.4502 29.335 17.509 29.3938 17.5814 29.3938Z" fill="white"/>
<path d="M18.1068 29.3938C18.1793 29.3938 18.2381 29.335 18.2381 29.2625C18.2381 29.19 18.1793 29.1313 18.1068 29.1313C18.0343 29.1313 17.9756 29.19 17.9756 29.2625C17.9756 29.335 18.0343 29.3938 18.1068 29.3938Z" fill="white"/>
<path d="M19.1566 31.3625C19.2291 31.3625 19.2879 31.3037 19.2879 31.2313C19.2879 31.1588 19.2291 31.1 19.1566 31.1C19.0842 31.1 19.0254 31.1588 19.0254 31.2313C19.0254 31.3037 19.0842 31.3625 19.1566 31.3625Z" fill="white"/>
<path d="M18.8939 31.6906C18.9664 31.6906 19.0252 31.6319 19.0252 31.5594C19.0252 31.4869 18.9664 31.4281 18.8939 31.4281C18.8215 31.4281 18.7627 31.4869 18.7627 31.5594C18.7627 31.6319 18.8215 31.6906 18.8939 31.6906Z" fill="white"/>
<path d="M19.4193 31.6906C19.4918 31.6906 19.5506 31.6319 19.5506 31.5594C19.5506 31.4869 19.4918 31.4281 19.4193 31.4281C19.3468 31.4281 19.2881 31.4869 19.2881 31.5594C19.2881 31.6319 19.3468 31.6906 19.4193 31.6906Z" fill="white"/>
<path d="M18.8939 31.0344C18.9664 31.0344 19.0252 30.9756 19.0252 30.9031C19.0252 30.8306 18.9664 30.7719 18.8939 30.7719C18.8215 30.7719 18.7627 30.8306 18.7627 30.9031C18.7627 30.9756 18.8215 31.0344 18.8939 31.0344Z" fill="white"/>
<path d="M19.4193 31.0344C19.4918 31.0344 19.5506 30.9756 19.5506 30.9031C19.5506 30.8306 19.4918 30.7719 19.4193 30.7719C19.3468 30.7719 19.2881 30.8306 19.2881 30.9031C19.2881 30.9756 19.3468 31.0344 19.4193 31.0344Z" fill="white"/>
<path d="M18.5 26.375H19.8125L19.6812 25.7188V25.0625H19.8125V24.7344H19.6156V24.9312H19.55V24.7344H19.3531V24.9312H19.2219V24.7344H19.0906V24.9312H18.9594V24.7344H18.7625V24.9312H18.6313V24.7344H18.5V25.0625H18.6313V25.7188L18.5 26.375Z" fill="#FFE62E"/>
<path d="M19.3533 26.375H19.2877V26.1125C19.2877 26.0469 19.2221 25.9812 19.1564 25.9812C19.0908 25.9812 19.0252 26.0469 19.0252 26.1125V26.375H18.9596V26.1125C18.9596 25.9812 19.0252 25.9156 19.1564 25.9156C19.2877 25.9156 19.3533 25.9812 19.3533 26.1125V26.375ZM19.1564 25.6531H18.7627V25.325C18.7627 25.1937 18.8283 25.1281 18.9596 25.1281C19.0908 25.1281 19.1564 25.1937 19.1564 25.325V25.6531ZM18.8283 25.5875H19.0908V25.325C19.0908 25.2594 19.0252 25.1937 18.9596 25.1937C18.8939 25.1937 18.8283 25.2594 18.8283 25.325V25.5875ZM19.5502 25.6531H19.1564V25.325C19.1564 25.1937 19.2221 25.1281 19.3533 25.1281C19.4846 25.1281 19.5502 25.1937 19.5502 25.325V25.6531ZM19.2221 25.5875H19.4846V25.325C19.4846 25.2594 19.4189 25.1937 19.3533 25.1937C19.2877 25.1937 19.2221 25.2594 19.2221 25.325V25.5875Z" fill="#3E4347"/>
<path d="M15.2188 26.375H16.5312L16.4 25.7188V25.0625H16.5312V24.7344H16.3344V24.9312H16.2688V24.7344H16.0719V24.9312H15.9406V24.7344H15.8094V24.9312H15.6781V24.7344H15.4812V24.9312H15.35V24.7344H15.2188V25.0625H15.35V25.7188L15.2188 26.375Z" fill="#FFE62E"/>
<path d="M16.0721 26.375H16.0064V26.1125C16.0064 26.0469 15.9408 25.9812 15.8752 25.9812C15.8096 25.9812 15.7439 26.0469 15.7439 26.1125V26.375H15.6783V26.1125C15.6783 25.9812 15.7439 25.9156 15.8752 25.9156C16.0064 25.9156 16.0721 25.9812 16.0721 26.1125V26.375ZM15.8752 25.6531H15.4814V25.325C15.4814 25.1937 15.5471 25.1281 15.6783 25.1281C15.8096 25.1281 15.8752 25.1937 15.8752 25.325V25.6531ZM15.5471 25.5875H15.8096V25.325C15.8096 25.2594 15.7439 25.1937 15.6783 25.1937C15.6127 25.1937 15.5471 25.2594 15.5471 25.325V25.5875Z" fill="#3E4347"/>
<path d="M16.2688 25.6531H15.875V25.325C15.875 25.1937 15.9406 25.1281 16.0719 25.1281C16.2031 25.1281 16.2688 25.1937 16.2688 25.325V25.6531ZM15.9406 25.5875H16.2031V25.325C16.2031 25.2594 16.1375 25.1937 16.0719 25.1937C16.0063 25.1937 15.9406 25.2594 15.9406 25.325V25.5875Z" fill="#3E4347"/>
<path d="M15.2188 30.2469H16.5312L16.4 29.5906V28.9344H16.5312V28.6063H16.4V28.8031H16.2688V28.6063H16.1375V28.8031H15.9406V28.6063H15.8094V28.8031H15.6781V28.6063H15.5469V28.8031H15.4156V28.6063H15.2188V28.9344H15.4156V29.5906L15.2188 30.2469Z" fill="#FFE62E"/>
<path d="M16.0721 30.2469H16.0064V29.9844C16.0064 29.9187 15.9408 29.8531 15.8752 29.8531C15.8096 29.8531 15.7439 29.9187 15.7439 29.9844V30.2469H15.6783V29.9844C15.6783 29.8531 15.7439 29.7875 15.8752 29.7875C16.0064 29.7875 16.0721 29.8531 16.0721 29.9844V30.2469ZM15.8752 29.525H15.4814V29.1969C15.4814 29.0656 15.5471 29 15.6783 29C15.8096 29 15.8752 29.0656 15.8752 29.1969V29.525ZM15.5471 29.4594H15.8096V29.1969C15.8096 29.1312 15.7439 29.0656 15.6783 29.0656C15.6127 29.0656 15.5471 29.1312 15.5471 29.1969V29.4594ZM16.3346 29.525H15.9408V29.1969C15.9408 29.0656 16.0064 29 16.1377 29C16.2689 29 16.3346 29.0656 16.3346 29.1969V29.525ZM16.0064 29.4594H16.2689V29.1969C16.2689 29.1312 16.2033 29.0656 16.1377 29.0656C16.0721 29.0656 16.0064 29.1312 16.0064 29.1969V29.4594Z" fill="#3E4347"/>
<path d="M21.7812 30.3125H23.0938L22.9625 29.6562V29H23.0938V28.7375H22.8969V28.8687H22.8313V28.7375H22.6344V28.8687H22.5031V28.7375H22.3719V28.8687H22.2406V28.7375H22.0437V28.8687H21.9125V28.7375H21.7812V29H21.9125V29.6562L21.7812 30.3125Z" fill="#FFE62E"/>
<path d="M22.6346 30.3125H22.5689V30.05C22.5689 29.9844 22.5033 29.9187 22.4377 29.9187C22.3721 29.9187 22.3064 29.9844 22.3064 30.05V30.3125H22.2408V30.05C22.2408 29.9187 22.3064 29.8531 22.4377 29.8531C22.5689 29.8531 22.6346 29.9187 22.6346 30.05V30.3125ZM22.4377 29.5906H22.0439V29.2625C22.0439 29.1312 22.1096 29.0656 22.2408 29.0656C22.3721 29.0656 22.4377 29.1312 22.4377 29.2625V29.5906ZM22.1096 29.525H22.3721V29.2625C22.3721 29.1969 22.3064 29.1312 22.2408 29.1312C22.1752 29.1312 22.1096 29.1969 22.1096 29.2625V29.525ZM22.8314 29.5906H22.4377V29.2625C22.4377 29.1312 22.5033 29.0656 22.6346 29.0656C22.7658 29.0656 22.8314 29.1312 22.8314 29.2625V29.5906ZM22.5033 29.525H22.7658V29.2625C22.7658 29.1969 22.7002 29.1312 22.6346 29.1312C22.5689 29.1312 22.5033 29.1969 22.5033 29.2625V29.525Z" fill="#3E4347"/>
<path d="M21.7812 26.375H23.0938L22.9625 25.7188V25.0625H23.0938V24.7344H22.8969V24.9312H22.8313V24.7344H22.6344V24.9312H22.5031V24.7344H22.3719V24.9312H22.2406V24.7344H22.0437V24.9312H21.9125V24.7344H21.7812V25.0625H21.9125V25.7188L21.7812 26.375Z" fill="#FFE62E"/>
<path d="M22.6346 26.375H22.5689V26.1125C22.5689 26.0469 22.5033 25.9812 22.4377 25.9812C22.3721 25.9812 22.3064 26.0469 22.3064 26.1125V26.375H22.2408V26.1125C22.2408 25.9812 22.3064 25.9156 22.4377 25.9156C22.5689 25.9156 22.6346 25.9812 22.6346 26.1125V26.375ZM22.4377 25.6531H22.0439V25.325C22.0439 25.1937 22.1096 25.1281 22.2408 25.1281C22.3721 25.1281 22.4377 25.1937 22.4377 25.325V25.6531ZM22.1096 25.5875H22.3721V25.325C22.3721 25.2594 22.3064 25.1937 22.2408 25.1937C22.1752 25.1937 22.1096 25.2594 22.1096 25.325V25.5875ZM22.8314 25.6531H22.4377V25.325C22.4377 25.1937 22.5033 25.1281 22.6346 25.1281C22.7658 25.1281 22.8314 25.1937 22.8314 25.325V25.6531ZM22.5033 25.5875H22.7658V25.325C22.7658 25.2594 22.7002 25.1937 22.6346 25.1937C22.5689 25.1937 22.5033 25.2594 22.5033 25.325V25.5875Z" fill="#3E4347"/>
<path d="M17.3187 33.9875L18.2375 33.0031L17.6469 32.675L17.1875 32.2156L17.3187 32.0844L17.1219 31.8875L16.9906 32.0188L17.1219 32.15L17.0563 32.2156L16.925 32.0844L16.7937 32.2156L16.925 32.2813L16.7937 32.4125L16.7281 32.2813L16.5969 32.4125L16.7281 32.5438L16.5969 32.6094L16.5312 32.4781L16.4 32.6094L16.4656 32.7406L16.4 32.8063L16.3344 32.675L16.2031 32.8063L16.4 33.0031H16.4656L16.5312 32.9375L16.9906 33.3969L17.3187 33.9875Z" fill="#FFE62E"/>
<path d="M17.6465 33.2C17.5809 33.1344 17.5152 33.1344 17.4496 33.2C17.384 33.2656 17.384 33.3312 17.4496 33.3969L17.6465 33.5937L17.5809 33.6594L17.384 33.4625C17.3184 33.3969 17.3184 33.2656 17.384 33.2C17.4496 33.1344 17.5809 33.1344 17.6465 33.2ZM17.2527 33.0031L16.9902 33.2656L16.7934 33.0687C16.7277 33.0031 16.7277 32.8719 16.7934 32.8062C16.859 32.7406 16.9902 32.7406 17.0559 32.8062L17.2527 33.0031ZM16.9902 33.2L17.1871 33.0031L16.9902 32.8062C16.9246 32.7406 16.859 32.7406 16.7934 32.8062C16.7277 32.8719 16.7277 32.9375 16.7934 33.0031L16.9902 33.2ZM17.5809 32.675L17.3184 32.9375L17.1215 32.7406C17.0559 32.675 17.0559 32.5437 17.1215 32.4781C17.1871 32.4125 17.3184 32.4125 17.384 32.4781L17.5809 32.675ZM17.3184 32.8719L17.5152 32.675L17.3184 32.4781C17.2527 32.4125 17.1871 32.4125 17.1215 32.4781C17.0559 32.5437 17.0559 32.6094 17.1215 32.675L17.3184 32.8719Z" fill="#3E4347"/>
<path d="M20.9939 33.9875L20.0752 33.0031L20.6002 32.675L21.0596 32.2156L20.9939 32.0844L21.1908 31.8875L21.3221 32.0188L21.1908 32.15L21.2564 32.2156L21.3877 32.0844L21.5189 32.2156L21.3877 32.2813L21.5189 32.4125L21.5846 32.2813L21.7158 32.4125L21.5846 32.5438L21.7158 32.6094L21.7814 32.4781L21.9127 32.6094L21.7814 32.7406L21.9127 32.8063L21.9783 32.675L22.1096 32.8063L21.9127 33.0031H21.8471L21.7814 32.9375L21.3221 33.3969L20.9939 33.9875Z" fill="#FFE62E"/>
<path d="M20.4033 33.3312L20.6658 33.2C20.7314 33.1344 20.7971 33.1344 20.8627 33.2C20.9283 33.2656 20.9283 33.3312 20.8627 33.3969L20.6002 33.5937L20.6658 33.6594L20.8627 33.4625C20.9283 33.3969 20.9283 33.2656 20.8627 33.2C20.7971 33.1344 20.6658 33.1344 20.6002 33.2L20.4033 33.3312ZM21.2564 32.8062C21.3221 32.7406 21.4533 32.7406 21.5189 32.8062C21.5846 32.8719 21.5846 33.0031 21.5189 33.0687L21.3221 33.2656L21.0596 33.0031L21.2564 32.8062ZM21.4533 33.0031C21.5189 32.9375 21.5189 32.8719 21.4533 32.8062C21.3877 32.7406 21.3221 32.7406 21.2564 32.8062L21.1252 33.0031L21.3221 33.2L21.4533 33.0031ZM20.9283 32.4781C20.9939 32.4125 21.1252 32.4125 21.1908 32.4781C21.2564 32.5437 21.2564 32.675 21.1908 32.7406L20.9939 32.9375L20.7314 32.675L20.9283 32.4781ZM21.1908 32.675C21.2564 32.6094 21.2564 32.5437 21.1908 32.4781C21.1252 32.4125 21.0596 32.4125 20.9939 32.4781L20.7971 32.675L20.9939 32.8719L21.1908 32.675Z" fill="#3E4347"/>
</svg>
