<svg width="74" height="74" viewBox="0 0 74 74" fill="none" xmlns="http://www.w3.org/2000/svg">
<rect width="74" height="74" rx="37" fill="#EBF4FC"/>
<path d="M7.74316 37C7.74316 49.6907 15.8807 60.4438 27.1182 64.4157V9.58441C15.7838 13.5563 7.74316 24.3094 7.74316 37Z" fill="#83BF4F"/>
<path d="M65.8682 37C65.8682 24.3094 57.7307 13.5563 46.4932 9.58441V64.4157C57.7307 60.4438 65.8682 49.6907 65.8682 37Z" fill="#FF8736"/>
<path d="M27.1182 64.4156C30.1213 65.4813 33.415 66.0625 36.8057 66.0625C40.1963 66.0625 43.49 65.4813 46.4932 64.4156V9.58438C43.3932 8.51875 40.1963 7.9375 36.8057 7.9375C33.415 7.9375 30.1213 8.51875 27.1182 9.58438V64.4156Z" fill="white"/>
</svg>
