<svg width="58" height="58" viewBox="0 0 58 58" fill="none" xmlns="http://www.w3.org/2000/svg">
<rect width="58" height="58" rx="29" fill="#EBF4FC"/>
<path d="M29 7.4375V29H7.4375C7.4375 40.9313 17.0687 50.5625 29 50.5625C40.9313 50.5625 50.5625 40.9313 50.5625 29C50.5625 17.0687 40.9313 7.4375 29 7.4375Z" fill="#ED4C5C"/>
<path d="M29 7.4375C17.0687 7.4375 7.4375 17.0687 7.4375 29H29V7.4375Z" fill="#2A5F9E"/>
<path d="M23.25 20.5906L26.8438 19.6562L23.25 18.7219L25.9094 16.0625L22.3156 16.9969L23.25 13.4031L20.5906 16.0625L19.6562 12.4688L18.7219 16.0625L16.0625 13.4031L16.9969 16.9969L13.4031 16.0625L16.0625 18.7219L12.4688 19.6562L16.0625 20.5906L13.4031 23.25L16.9969 22.3156L16.0625 25.9094L18.7219 23.25L19.6562 26.8438L20.5906 23.25L23.25 25.9094L22.3156 22.3156L25.9094 23.25L23.25 20.5906Z" fill="white"/>
<path d="M19.6564 23.7531C21.9191 23.7531 23.7533 21.9189 23.7533 19.6563C23.7533 17.3936 21.9191 15.5594 19.6564 15.5594C17.3938 15.5594 15.5596 17.3936 15.5596 19.6563C15.5596 21.9189 17.3938 23.7531 19.6564 23.7531Z" fill="#428BC1"/>
<path d="M19.6562 23.25C21.641 23.25 23.25 21.641 23.25 19.6562C23.25 17.6715 21.641 16.0625 19.6562 16.0625C17.6715 16.0625 16.0625 17.6715 16.0625 19.6562C16.0625 21.641 17.6715 23.25 19.6562 23.25Z" fill="white"/>
</svg>
