<svg width="26" height="27" viewBox="0 0 26 27" fill="none" xmlns="http://www.w3.org/2000/svg">
<rect y="0.5" width="26" height="26" rx="13" fill="#D9EBFB"/>
<mask id="mask0_35_765" style="mask-type:alpha" maskUnits="userSpaceOnUse" x="1" y="1" width="24" height="25">
<rect x="1" y="1.5" width="24" height="24" fill="#D9D9D9"/>
</mask>
<g mask="url(#mask0_35_765)">
<path d="M10.9995 15.4557L17.0725 9.373C17.2105 9.23466 17.386 9.1655 17.599 9.1655C17.8122 9.1655 17.988 9.2345 18.1265 9.3725C18.2649 9.5105 18.334 9.68608 18.334 9.89925C18.334 10.1126 18.2649 10.2885 18.1265 10.427L11.6323 16.9115C11.4515 17.0923 11.2405 17.1827 10.9995 17.1827C10.7585 17.1827 10.5476 17.0923 10.3668 16.9115L7.87254 14.427C7.73421 14.289 7.66504 14.1135 7.66504 13.9005C7.66504 13.6873 7.73404 13.5115 7.87204 13.373C8.01004 13.2347 8.18562 13.1655 8.39879 13.1655C8.61212 13.1655 8.78804 13.2347 8.92654 13.373L10.9995 15.4557Z" fill="#4A7194"/>
</g>
</svg>
