<svg width="410" height="266" viewBox="0 0 410 266" fill="none" xmlns="http://www.w3.org/2000/svg">
<rect width="74" height="74" rx="37" fill="#EBF4FC"/>
<path d="M66.0625 37C66.0625 24.3094 58.0219 13.5563 46.6875 9.58438V64.4156C58.0219 60.4438 66.0625 49.6906 66.0625 37Z" fill="#ED4C5C"/>
<path d="M7.9375 37C7.9375 49.6906 16.075 60.4438 27.3125 64.4156V9.58438C16.075 13.5563 7.9375 24.3094 7.9375 37Z" fill="#75A843"/>
<path d="M46.6875 9.58438C43.6844 8.51875 40.3906 7.9375 37 7.9375C33.6094 7.9375 30.3156 8.51875 27.3125 9.58438V64.4156C30.3156 65.4813 33.6094 66.0625 37 66.0625C40.3906 66.0625 43.6844 65.4813 46.6875 64.4156V9.58438Z" fill="white"/>
<path d="M45.4273 36.7094C45.3305 36.4188 45.2336 36.8063 45.2336 36.9031C45.2336 36.6125 45.1367 36.4188 44.943 36.1281C44.6523 36.4188 44.5555 36.8063 44.5555 37.1938C44.4586 36.9031 44.3617 36.6125 44.0711 36.5156C44.2648 36.8063 44.168 37 44.168 37.2906C44.168 37.6781 44.4586 37.9688 44.4586 38.3563C44.4586 38.7438 44.2648 39.0344 43.9742 39.325V39.0344C43.0055 39.4219 43.1992 39.9063 43.1992 40.7781C43.1992 41.65 42.7148 41.4563 42.1336 41.9406C42.2305 41.7469 42.2305 41.4563 42.1336 41.2625C42.1336 41.8438 41.3586 41.8438 41.2617 42.3281C41.1648 42.5219 41.2617 42.9094 40.9711 43.0063C40.7773 43.1031 40.4867 43.2969 40.4867 43.4906C40.293 43.3938 40.0992 43.3938 39.8086 43.3938C39.9055 43.2969 40.0023 43.2969 40.0992 43.2C39.1305 42.7156 38.8398 43.7813 37.968 43.8781C37.6773 43.8781 36.9992 43.4906 36.9992 43.8781C37.8711 43.8781 38.2586 44.6531 38.9367 44.6531C39.518 44.6531 40.0023 44.1688 40.5836 44.1688C40.4867 44.1688 40.1961 43.975 39.9055 43.975C40.3898 43.6844 40.6805 43.1031 41.2617 43.1031C42.2305 43.1031 42.7148 42.9094 43.0055 41.9406C42.9086 41.9406 42.8117 41.9406 42.7148 42.0375C42.7148 41.65 43.1023 41.1656 43.4898 40.9719C44.4586 40.7781 44.3617 40.0031 44.943 39.325C44.7492 39.325 44.5555 39.4219 44.3617 39.6156C44.3617 39.0344 44.2648 38.4531 44.7492 38.0656C45.718 37.5813 45.6211 37.3875 45.4273 36.7094ZM28.5711 36.7094C28.3773 37.4844 28.2805 37.6781 29.0555 38.1625C29.6367 38.55 29.443 39.1313 29.443 39.7125C29.2492 39.5188 29.1523 39.4219 28.8617 39.4219C29.443 40.0031 29.3461 40.875 30.3148 41.0688C30.6055 41.2625 31.0898 41.7469 31.0898 42.1344C30.993 42.1344 30.8961 42.0375 30.7992 42.0375C31.0898 43.0063 31.5742 43.2 32.543 43.2C33.1242 43.2 33.4148 43.7813 33.8992 44.0719C33.6086 44.0719 33.318 44.1688 33.2211 44.2656C33.8023 44.2656 34.2867 44.8469 34.868 44.75C35.5461 44.75 36.0305 43.975 36.8055 43.975C36.8055 43.5875 36.1273 43.975 35.8367 43.975C35.0617 43.7813 34.7711 42.8125 33.7055 43.2C33.8023 43.2969 33.8992 43.3938 33.9961 43.3938C33.8023 43.3938 33.5117 43.2969 33.318 43.4906C33.2211 43.2969 33.0273 43.1031 32.8336 43.0063C32.6398 42.8125 32.6398 42.5219 32.543 42.3281C32.3492 41.8438 31.6711 41.7469 31.6711 41.2625C31.5742 41.4563 31.5742 41.7469 31.6711 41.9406C31.0898 41.4563 30.6055 41.65 30.6055 40.7781C30.6055 40.0031 30.7992 39.4219 29.8305 39.0344V39.325C29.5398 39.0344 29.3461 38.8406 29.3461 38.3563C29.3461 37.9688 29.7336 37.6781 29.6367 37.2906C29.6367 37 29.5398 36.8063 29.7336 36.5156C29.443 36.6125 29.3461 36.9031 29.2492 37.1938C29.2492 36.8063 29.1523 36.4188 28.8617 36.1281C28.7648 36.3219 28.668 36.6125 28.5711 36.9031C28.668 36.7094 28.5711 36.4188 28.5711 36.7094Z" fill="#75A843"/>
<path d="M39.6168 42.5219C39.423 42.5219 39.3262 42.3281 39.2293 42.2312C39.2293 42.0375 40.0043 41.8437 40.1012 41.8437V41.65C38.8418 42.0375 35.0637 42.3281 34.2887 40.9719C33.9012 41.5531 33.223 41.1656 32.5449 40.6812C32.6418 40.875 33.0293 41.8437 33.0293 41.7469C33.223 41.8437 34.4824 42.1344 34.4824 42.425L34.1918 42.7156C36.2262 43.3937 37.4855 43.5875 39.6168 42.5219Z" fill="#428BC1"/>
<path d="M38.3563 42.5219C38.4531 42.425 38.4531 42.3281 38.4531 42.1344L38.3563 41.8437C38.55 41.65 38.3562 41.1656 38.0656 41.2625C37.8719 41.3594 37.9687 41.3594 37.775 41.2625C37.6781 41.2625 37.6781 41.1656 37.5812 41.1656H35.8375C35.6437 41.1656 35.6437 41.0687 35.45 41.0687C35.2562 40.9719 35.1594 41.1656 35.0625 41.2625C35.0625 41.4562 35.1594 41.4562 35.1594 41.5531C35.1594 41.65 35.0625 41.7469 35.0625 41.9406C35.0625 42.1344 35.1594 42.2312 35.2563 42.3281C34.8688 42.6187 35.2563 43.1031 35.6438 42.8125C35.7406 43.0062 36.0312 43.0062 36.3219 43.0062H37.3875C37.5813 43.0062 37.9687 43.1031 38.0656 42.8125C38.3562 43.2969 38.7438 42.7156 38.3563 42.5219Z" fill="#ED4C5C"/>
<path d="M41.4569 40.0031C40.6819 39.0344 40.2944 40.4875 39.4225 40.3906C39.6162 39.2281 37.8725 39.6156 37.3881 39.9063C37.485 39.8094 37.5819 39.6156 37.6787 39.4219C37.2912 39.4219 36.8069 39.6156 36.5162 39.325C35.935 38.9375 35.16 38.7438 34.6756 39.4219C34.2881 38.8406 33.2225 38.2594 32.6412 38.8406C32.6412 38.2594 32.06 37.3875 31.3819 37.4844C30.6069 37.5813 30.8975 38.55 31.285 38.9375C31.5756 39.2281 31.9631 39.325 32.3506 39.325C32.3506 39.5188 32.4475 39.6156 32.5444 39.7125C33.0287 40.1 33.9975 40.1969 34.4819 39.8094C34.4819 40.7781 36.4194 40.7781 36.9037 40.2938C36.71 40.7781 36.5162 41.7469 37.1944 41.7469C37.7756 41.7469 37.5819 41.1656 38.0662 40.9719C38.4537 40.7781 38.9381 40.6813 39.3256 40.875C40.0037 41.2625 42.135 41.1656 41.4569 40.0031Z" fill="#428BC1"/>
<path d="M33.5124 37.5813C33.4155 37.3875 33.2218 37.1938 33.2218 37.1938C32.8343 37.2906 32.8343 37 32.7374 36.7094C32.6405 36.225 31.9624 36.0313 31.9624 35.6438C31.9624 35.2563 32.3499 34.8688 32.0593 34.4813C31.7687 34.0938 31.2843 33.9 31.2843 34.0938C31.1874 34.2875 31.6718 34.2875 31.6718 34.7719C31.6718 35.3531 31.0905 35.8375 31.7687 36.3219C32.1562 36.9031 32.1562 37.9688 32.8343 37.9688C33.1249 37.9688 33.4155 37.8719 33.5124 37.5813Z" fill="#75A843"/>
<path d="M34.9658 37.0969C34.772 36.7094 34.9658 36.1281 34.5783 35.8375C34.0939 35.45 33.1252 36.225 33.0283 35.2563C33.0283 35.0625 34.0939 33.9 34.2877 33.8031C34.5783 33.4156 34.4814 32.7375 34.1908 32.5438C33.8033 32.35 33.7064 32.5438 33.4158 32.9313C33.5127 33.0281 33.9002 33.2219 33.9002 33.3188C33.6095 33.9969 32.7377 34.0938 32.5439 34.7719C32.3502 35.2563 32.447 36.0313 32.9314 36.3219C33.222 36.5156 33.4158 36.5156 33.7064 36.5156C34.5783 36.4188 34.0939 36.6125 34.1908 36.8063C34.1908 37 34.4814 37.6781 34.9658 37.0969ZM32.0595 32.35C32.0595 32.9313 32.6408 32.8344 33.0283 32.7375C33.0283 32.5438 33.0283 32.35 33.1252 32.1563C32.9314 32.2531 32.6408 32.2531 32.5439 32.1563C32.2533 31.9625 33.222 31.575 33.1252 31.575C33.1252 31.575 32.1564 32.0594 32.5439 31.4781C32.6408 31.2844 32.8345 31.0906 32.9314 30.8969C33.0283 30.7031 32.6408 30.8969 32.6408 30.8969C32.5439 30.8969 32.447 30.8969 32.3502 30.9938C31.7689 31.4781 31.9627 31.7688 32.0595 32.35Z" fill="#75A843"/>
<path d="M42.3279 32.35C41.8435 31.6719 40.0029 29.4438 37.3873 29.25C37.0967 29.25 36.3217 29.5406 36.031 29.6375C35.1592 30.2187 36.9998 30.7031 37.0967 31.0906C37.0967 31.2844 37.1935 31.3812 37.1935 31.575C36.9029 31.0906 36.6123 30.8 36.5154 30.6062C36.031 30.8 35.256 30.5094 35.1592 30.025C35.0623 30.2187 35.0623 30.3156 34.8685 30.5094C34.8685 30.2187 34.7717 30.2187 34.6748 30.025C34.6748 30.3156 34.6748 30.7031 34.3842 30.8C34.481 30.6063 34.3842 30.4125 34.2873 30.2188C34.2873 30.5094 34.2873 30.7031 34.0935 30.8969C34.1904 30.7031 33.9967 30.6063 33.9967 30.4125C33.8998 31.1875 32.8342 31.4781 33.8998 31.7688C34.2873 31.8656 34.481 31.7687 34.8685 31.9625C34.9654 32.0594 35.1592 32.2531 35.1592 32.1563C35.1592 32.2531 34.7717 32.6406 35.0623 32.7375C34.9654 32.8344 34.6748 33.4156 34.6748 33.4156C34.9654 33.4156 34.7717 33.6094 34.5779 33.8031C34.2873 34.2875 34.5779 34.7719 34.6748 35.3531C34.6748 35.1594 34.9654 35.45 34.9654 35.7406C34.9654 36.1281 35.3529 36.3219 35.4498 36.6125C34.9654 36.1281 34.8685 36.6125 35.4498 36.9031C34.9654 36.9031 34.8685 37.1938 35.3529 37.3875C34.1904 37.3875 35.1592 37.8719 35.3529 37.9688C36.1279 38.1625 36.7092 37.5813 36.7092 37.4844C36.7092 37.4844 38.2592 39.0344 38.356 39.0344C38.4529 39.0344 39.2279 38.6469 39.4217 38.8406C39.6154 39.1313 39.8092 38.8406 40.0029 38.9375C40.1967 39.1313 40.9717 38.9375 41.1654 38.8406C41.2623 38.8406 42.231 38.6469 42.0373 38.4531C41.5529 38.0656 40.9717 37.6781 40.4873 37.2906C40.0029 36.9031 39.5185 36.6125 39.131 36.225C38.9373 36.0313 38.9373 35.6437 38.8404 35.3531C39.7123 36.225 40.5842 36.7094 40.4873 35.0625C41.0685 35.5469 42.231 38.2594 42.3279 38.2594C42.6185 38.2594 42.3279 35.3531 42.3279 35.0625C42.7154 35.45 42.7154 38.6469 42.8123 38.6469C43.2967 38.7438 43.9748 34.4813 42.3279 32.35Z" fill="#89664C"/>
<path d="M35.3525 37.2906C35.2557 37.2906 34.7713 36.6125 34.7713 36.5156C35.0619 37.6781 33.8994 37 34.19 36.5156C33.8025 36.4187 32.8338 37 33.2213 37.5812C33.0275 37.9687 34.5775 37.6781 34.6744 37.4844C35.0619 38.3562 36.0307 37.3875 35.3525 37.2906ZM39.9057 40.1969C40.39 39.5187 38.3557 39.325 38.5494 38.55C38.2588 38.7437 37.8713 39.4219 37.4838 39.2281C37.29 39.1312 36.515 39.6156 36.9025 39.9062C36.9025 39.5187 37.0963 39.8094 37.3869 39.7125C37.29 40.0031 36.9994 40.2937 37.4838 40.4875C37.29 39.9062 38.065 40.1969 37.9682 39.9062C37.7744 39.7125 38.6463 39.7125 38.7432 39.7125C39.0338 39.7125 40.0025 40.0031 39.615 40.2937C39.615 40.2937 39.8088 40.2937 39.9057 40.1969ZM33.415 31.8656C33.3182 32.0594 32.9307 32.35 32.9307 32.6406C32.9307 32.8344 33.415 33.3187 33.6088 33.0281C33.0275 32.6406 33.7057 32.35 33.9963 32.35C34.0932 32.35 34.0932 32.5437 34.0932 32.5437C34.19 32.6406 34.965 32.35 34.8682 32.1562C34.965 31.7687 33.7057 31.7687 33.415 31.8656Z" fill="#FFCE31"/>
<rect x="96" y="8" width="58" height="58" rx="29" fill="#EBF4FC"/>
<path d="M103.438 37C103.438 46.4156 109.475 54.3938 117.812 57.3406V16.6594C109.475 19.6063 103.438 27.5844 103.438 37Z" fill="#ED4C5C"/>
<path d="M125 15.4375C122.484 15.4375 120.041 15.8688 117.812 16.6594V29.8125H145.341C142.394 21.475 134.416 15.4375 125 15.4375Z" fill="#699635"/>
<path d="M145.341 29.8125H117.812V44.1875H145.341C146.131 41.9594 146.562 39.5156 146.562 37C146.562 34.4844 146.131 32.0406 145.341 29.8125Z" fill="#F9F9F9"/>
<path d="M117.812 44.1875V57.3406C120.041 58.1312 122.484 58.5625 125 58.5625C134.416 58.5625 142.394 52.5969 145.341 44.1875H117.812Z" fill="#3E4347"/>
<rect x="176" y="8" width="58" height="58" rx="29" fill="#EBF4FC"/>
<path d="M226.062 37C226.062 48.6325 216.632 58.0625 205 58.0625C193.368 58.0625 183.938 48.6325 183.938 37C183.938 25.3675 193.368 15.9375 205 15.9375C216.632 15.9375 226.062 25.3675 226.062 37Z" fill="#F5F5F5" stroke="#F6FBFF"/>
<path d="M205 45.625C209.763 45.625 213.625 41.7635 213.625 37C213.625 32.2365 209.763 28.375 205 28.375C200.237 28.375 196.375 32.2365 196.375 37C196.375 41.7635 200.237 45.625 205 45.625Z" fill="#ED4C5C"/>
<rect x="256" y="8" width="58" height="58" rx="29" fill="#EBF4FC"/>
<path d="M284.929 15.4375C275.513 15.4375 267.535 21.475 264.588 29.8125H305.269C302.322 21.475 294.344 15.4375 284.929 15.4375Z" fill="#3E4347"/>
<path d="M284.929 58.5625C294.344 58.5625 302.322 52.5969 305.269 44.1875H264.588C267.535 52.5969 275.513 58.5625 284.929 58.5625Z" fill="#FFE62E"/>
<path d="M264.587 29.8125C263.796 32.0406 263.365 34.4844 263.365 37C263.365 39.5156 263.796 41.9594 264.587 44.1875H305.268C306.059 41.9594 306.49 39.5156 306.49 37C306.49 34.4844 306.059 32.0406 305.268 29.8125H264.587Z" fill="#ED4C5C"/>
<rect x="336" width="74" height="74" rx="37" fill="#EBF4FC"/>
<path d="M373 66.0625C389.051 66.0625 402.062 53.0508 402.062 37C402.062 20.9492 389.051 7.9375 373 7.9375C356.949 7.9375 343.938 20.9492 343.938 37C343.938 53.0508 356.949 66.0625 373 66.0625Z" fill="#ED4C5C"/>
<path d="M363.312 33.5125L371.062 38.9375L368.156 30.025L375.906 24.4062H366.316L363.312 15.6875L360.406 24.4062H350.719L358.469 30.025L355.562 38.9375L363.312 33.5125ZM376.197 40.1969L373.969 40.6812L376.1 41.5531V43.7812L377.553 42.1344L379.684 42.9094L378.425 41.0688L379.781 39.325L377.553 39.8094L376.197 37.9688V40.1969ZM379.491 33.6094L377.844 35.0625L380.072 34.8687L381.041 37L381.428 34.7719L383.656 34.5781L381.719 33.4156L382.203 31.1875L380.556 32.6406L378.619 31.4781L379.491 33.6094ZM380.072 26.0531L380.75 28.2812L381.428 26.15H383.656L381.913 24.7937L382.591 22.5656L380.75 23.9219L379.006 22.4688L379.684 24.6969L377.844 25.9563L380.072 26.0531ZM376.197 18.3031V20.5312L377.553 18.6906L379.781 19.175L378.425 17.4313L379.684 15.5906L377.553 16.4625L376.1 14.7188V16.9469L373.969 17.8187L376.197 18.3031Z" fill="#FFE62E"/>
<rect y="96" width="74" height="74" rx="37" fill="#EBF4FC"/>
<path d="M37.0004 103.938C27.0223 103.938 18.3035 108.878 13.0723 116.531H60.9285C55.6973 108.878 46.9785 103.938 37.0004 103.938ZM37.0004 162.062C46.9785 162.062 55.6973 157.122 60.9285 149.469H13.0723C18.3035 157.122 27.0223 162.062 37.0004 162.062Z" fill="#2A5F9E"/>
<path d="M63.1562 120.406H10.8438C9.00313 124.184 7.9375 128.447 7.9375 133C7.9375 137.553 9.00313 141.816 10.8438 145.594H63.1562C64.9969 141.816 66.0625 137.553 66.0625 133C66.0625 128.447 64.9969 124.184 63.1562 120.406Z" fill="#ED4C5C"/>
<path d="M10.8438 145.594C11.5219 146.95 12.2969 148.209 13.0719 149.469H60.9281C61.8 148.209 62.575 146.95 63.1562 145.594H10.8438ZM63.1562 120.406C62.4781 119.05 61.7031 117.791 60.9281 116.531H13.0719C12.2 117.791 11.425 119.05 10.8438 120.406H63.1562Z" fill="white"/>
<path d="M23.4375 143.656C29.3228 143.656 34.0938 138.885 34.0938 133C34.0938 127.115 29.3228 122.344 23.4375 122.344C17.5522 122.344 12.7812 127.115 12.7812 133C12.7812 138.885 17.5522 143.656 23.4375 143.656Z" fill="white"/>
<path d="M23.4375 136.778L28.1844 140.459L26.4406 134.55L31.1875 130.869H25.2781L23.4375 124.959L21.5969 130.869H15.6875L20.4344 134.55L18.6906 140.459L23.4375 136.778Z" fill="#ED4C5C"/>
<rect x="96" y="104" width="58" height="58" rx="29" fill="#EBF4FC"/>
<path d="M124.929 111.438C115.513 111.438 107.535 117.475 104.588 125.812H145.269C142.322 117.475 134.344 111.438 124.929 111.438Z" fill="#3E4347"/>
<path d="M124.929 154.562C134.344 154.562 142.322 148.597 145.269 140.188H104.588C107.535 148.597 115.513 154.562 124.929 154.562Z" fill="#FFE62E"/>
<path d="M104.587 125.812C103.796 128.041 103.365 130.484 103.365 133C103.365 135.516 103.796 137.959 104.587 140.188H145.268C146.059 137.959 146.49 135.516 146.49 133C146.49 130.484 146.059 128.041 145.268 125.812H104.587Z" fill="#ED4C5C"/>
<rect x="176" y="96" width="74" height="74" rx="37" fill="#EBF4FC"/>
<path d="M212.805 103.938C200.211 103.938 189.458 112.075 185.486 123.312H240.318C236.249 112.075 225.496 103.938 212.805 103.938Z" fill="#F2B200"/>
<path d="M212.805 162.062C225.496 162.062 236.249 154.022 240.221 142.688H185.486C189.458 154.022 200.211 162.062 212.805 162.062Z" fill="#83BF4F"/>
<path d="M185.489 123.312C184.423 126.316 183.842 129.609 183.842 133C183.842 136.391 184.423 139.684 185.489 142.688H240.32C241.386 139.684 241.967 136.391 241.967 133C241.967 129.609 241.386 126.316 240.32 123.312H185.489Z" fill="white"/>
<path d="M212.806 140.75C217.086 140.75 220.556 137.28 220.556 133C220.556 128.72 217.086 125.25 212.806 125.25C208.525 125.25 205.056 128.72 205.056 133C205.056 137.28 208.525 140.75 212.806 140.75Z" fill="#428BC1"/>
<path d="M212.806 139.781C216.551 139.781 219.587 136.745 219.587 133C219.587 129.255 216.551 126.219 212.806 126.219C209.06 126.219 206.024 129.255 206.024 133C206.024 136.745 209.06 139.781 212.806 139.781Z" fill="white"/>
<path d="M210.287 127.188C210.555 127.188 210.771 126.971 210.771 126.703C210.771 126.436 210.555 126.219 210.287 126.219C210.02 126.219 209.803 126.436 209.803 126.703C209.803 126.971 210.02 127.188 210.287 127.188Z" fill="#428BC1"/>
<path d="M208.737 128.059C209.005 128.059 209.222 127.843 209.222 127.575C209.222 127.307 209.005 127.091 208.737 127.091C208.47 127.091 208.253 127.307 208.253 127.575C208.253 127.843 208.47 128.059 208.737 128.059Z" fill="#428BC1"/>
<path d="M207.479 129.319C207.746 129.319 207.963 129.102 207.963 128.834C207.963 128.567 207.746 128.35 207.479 128.35C207.211 128.35 206.994 128.567 206.994 128.834C206.994 129.102 207.211 129.319 207.479 129.319Z" fill="#428BC1"/>
<path d="M206.606 130.869C206.874 130.869 207.091 130.652 207.091 130.384C207.091 130.117 206.874 129.9 206.606 129.9C206.339 129.9 206.122 130.117 206.122 130.384C206.122 130.652 206.339 130.869 206.606 130.869Z" fill="#428BC1"/>
<path d="M206.122 132.613C206.39 132.613 206.606 132.396 206.606 132.128C206.606 131.861 206.39 131.644 206.122 131.644C205.855 131.644 205.638 131.861 205.638 132.128C205.638 132.396 205.855 132.613 206.122 132.613Z" fill="#428BC1"/>
<path d="M206.122 134.356C206.39 134.356 206.606 134.139 206.606 133.872C206.606 133.604 206.39 133.388 206.122 133.388C205.855 133.388 205.638 133.604 205.638 133.872C205.638 134.139 205.855 134.356 206.122 134.356Z" fill="#428BC1"/>
<path d="M206.606 136.1C206.874 136.1 207.091 135.883 207.091 135.616C207.091 135.348 206.874 135.131 206.606 135.131C206.339 135.131 206.122 135.348 206.122 135.616C206.122 135.883 206.339 136.1 206.606 136.1Z" fill="#428BC1"/>
<path d="M207.479 137.65C207.746 137.65 207.963 137.433 207.963 137.166C207.963 136.898 207.746 136.681 207.479 136.681C207.211 136.681 206.994 136.898 206.994 137.166C206.994 137.433 207.211 137.65 207.479 137.65Z" fill="#428BC1"/>
<path d="M208.737 138.909C209.005 138.909 209.222 138.693 209.222 138.425C209.222 138.158 209.005 137.941 208.737 137.941C208.47 137.941 208.253 138.158 208.253 138.425C208.253 138.693 208.47 138.909 208.737 138.909Z" fill="#428BC1"/>
<path d="M210.287 139.781C210.555 139.781 210.771 139.564 210.771 139.297C210.771 139.029 210.555 138.813 210.287 138.813C210.02 138.813 209.803 139.029 209.803 139.297C209.803 139.564 210.02 139.781 210.287 139.781Z" fill="#428BC1"/>
<path d="M211.935 140.169C212.202 140.169 212.419 139.952 212.419 139.684C212.419 139.417 212.202 139.2 211.935 139.2C211.667 139.2 211.45 139.417 211.45 139.684C211.45 139.952 211.667 140.169 211.935 140.169Z" fill="#428BC1"/>
<path d="M213.291 139.781C213.291 139.491 213.485 139.297 213.679 139.2C213.969 139.2 214.163 139.394 214.26 139.588C214.26 139.878 214.066 140.072 213.872 140.169C213.485 140.266 213.291 140.072 213.291 139.781Z" fill="#428BC1"/>
<path d="M215.421 139.781C215.688 139.781 215.905 139.564 215.905 139.297C215.905 139.029 215.688 138.813 215.421 138.813C215.153 138.813 214.937 139.029 214.937 139.297C214.937 139.564 215.153 139.781 215.421 139.781Z" fill="#428BC1"/>
<path d="M216.972 138.909C217.239 138.909 217.456 138.693 217.456 138.425C217.456 138.158 217.239 137.941 216.972 137.941C216.704 137.941 216.487 138.158 216.487 138.425C216.487 138.693 216.704 138.909 216.972 138.909Z" fill="#428BC1"/>
<path d="M218.231 137.65C218.499 137.65 218.716 137.433 218.716 137.166C218.716 136.898 218.499 136.681 218.231 136.681C217.964 136.681 217.747 136.898 217.747 137.166C217.747 137.433 217.964 137.65 218.231 137.65Z" fill="#428BC1"/>
<path d="M219.104 136.1C219.371 136.1 219.588 135.883 219.588 135.616C219.588 135.348 219.371 135.131 219.104 135.131C218.836 135.131 218.619 135.348 218.619 135.616C218.619 135.883 218.836 136.1 219.104 136.1Z" fill="#428BC1"/>
<path d="M219.588 134.356C219.855 134.356 220.072 134.139 220.072 133.872C220.072 133.604 219.855 133.388 219.588 133.388C219.32 133.388 219.104 133.604 219.104 133.872C219.104 134.139 219.32 134.356 219.588 134.356Z" fill="#428BC1"/>
<path d="M219.587 132.613C219.296 132.613 219.103 132.419 219.006 132.225C219.006 131.934 219.2 131.741 219.393 131.644C219.684 131.644 219.878 131.838 219.975 132.031C220.071 132.322 219.878 132.516 219.587 132.613Z" fill="#428BC1"/>
<path d="M219.104 130.869C219.371 130.869 219.588 130.652 219.588 130.384C219.588 130.117 219.371 129.9 219.104 129.9C218.836 129.9 218.619 130.117 218.619 130.384C218.619 130.652 218.836 130.869 219.104 130.869Z" fill="#428BC1"/>
<path d="M218.231 129.319C218.499 129.319 218.716 129.102 218.716 128.834C218.716 128.567 218.499 128.35 218.231 128.35C217.964 128.35 217.747 128.567 217.747 128.834C217.747 129.102 217.964 129.319 218.231 129.319Z" fill="#428BC1"/>
<path d="M216.972 128.059C217.239 128.059 217.456 127.843 217.456 127.575C217.456 127.307 217.239 127.091 216.972 127.091C216.704 127.091 216.487 127.307 216.487 127.575C216.487 127.843 216.704 128.059 216.972 128.059Z" fill="#428BC1"/>
<path d="M215.906 126.897C215.81 127.188 215.519 127.284 215.228 127.188C214.938 127.091 214.841 126.8 214.938 126.509C215.035 126.219 215.325 126.122 215.616 126.219C215.906 126.413 216.003 126.703 215.906 126.897ZM214.163 126.316C214.163 126.606 213.872 126.8 213.581 126.703C213.291 126.703 213.097 126.413 213.194 126.122C213.194 125.831 213.485 125.638 213.775 125.734C214.066 125.831 214.26 126.122 214.163 126.316ZM212.419 126.219C212.419 126.509 212.225 126.703 212.031 126.8C211.741 126.8 211.547 126.606 211.45 126.413C211.45 126.122 211.644 125.928 211.838 125.831C212.128 125.734 212.419 125.928 212.419 126.219Z" fill="#428BC1"/>
<path d="M212.807 134.453C213.609 134.453 214.26 133.803 214.26 133C214.26 132.197 213.609 131.547 212.807 131.547C212.004 131.547 211.354 132.197 211.354 133C211.354 133.803 212.004 134.453 212.807 134.453Z" fill="#428BC1"/>
<path d="M212.805 126.219L212.612 130.384L212.805 133L213.096 130.384L212.805 126.219ZM211.062 126.413L211.933 130.578L212.805 133L212.418 130.384L211.062 126.413Z" fill="#428BC1"/>
<path d="M209.416 127.091L211.353 130.869L212.806 133L211.741 130.578L209.416 127.091ZM208.06 128.156L210.869 131.353L212.806 133L211.16 130.966L208.06 128.156Z" fill="#428BC1"/>
<path d="M206.994 129.609L210.482 131.934L212.807 133L210.675 131.45L206.994 129.609Z" fill="#428BC1"/>
<path d="M206.316 131.256L210.288 132.516L212.807 133L210.385 132.128L206.316 131.256ZM206.025 133L210.288 133.194L212.807 133L210.288 132.806L206.025 133Z" fill="#428BC1"/>
<path d="M206.315 134.744L210.384 133.872L212.806 133L210.287 133.484L206.315 134.744ZM206.994 136.391L210.675 134.55L212.806 133L210.481 134.066L206.994 136.391Z" fill="#428BC1"/>
<path d="M208.06 137.747L211.16 135.034L212.806 133L210.869 134.647L208.06 137.747ZM209.416 138.909L211.741 135.325L212.806 133L211.353 135.131L209.416 138.909Z" fill="#428BC1"/>
<path d="M211.062 139.588L212.418 135.616L212.805 133L211.933 135.422L211.062 139.588ZM212.805 139.781L213.096 135.616L212.805 133L212.612 135.616L212.805 139.781ZM214.549 139.588L213.774 135.422L212.805 133L213.29 135.616L214.549 139.588Z" fill="#428BC1"/>
<path d="M216.197 138.909L214.357 135.131L212.807 133L213.969 135.422L216.197 138.909ZM217.65 137.747L214.841 134.647L212.807 133L214.55 135.034L217.65 137.747Z" fill="#428BC1"/>
<path d="M218.716 136.391L215.229 134.066L212.807 133L214.938 134.55L218.716 136.391ZM219.394 134.744L215.422 133.484L212.807 133L215.325 133.872L219.394 134.744ZM219.588 133L215.422 132.709L212.807 133L215.422 133.194L219.588 133ZM219.394 131.256L215.325 132.128L212.807 133L215.422 132.516L219.394 131.256Z" fill="#428BC1"/>
<path d="M218.716 129.609L214.938 131.45L212.807 133L215.229 131.934L218.716 129.609ZM217.65 128.253L214.55 130.966L212.807 133L214.841 131.353L217.65 128.253Z" fill="#428BC1"/>
<path d="M216.197 127.091L213.969 130.675L212.807 133L214.357 130.869L216.197 127.091Z" fill="#428BC1"/>
<path d="M214.647 126.413L213.291 130.384L212.807 133L213.775 130.578L214.647 126.413Z" fill="#428BC1"/>
<rect x="272" y="104" width="58" height="58" rx="29" fill="#EBF4FC"/>
<path d="M301 154.562C312.909 154.562 322.562 144.909 322.562 133C322.562 121.091 312.909 111.438 301 111.438C289.091 111.438 279.438 121.091 279.438 133C279.438 144.909 289.091 154.562 301 154.562Z" fill="#ED4C5C"/>
<path d="M307.684 138.031L307.756 134.15L303.875 133L307.756 131.85L307.684 127.969L310.056 131.059L313.938 129.909L311.566 133L313.938 136.091L310.056 134.941L307.684 138.031Z" fill="white"/>
<path d="M301.863 141.625C297.119 141.625 293.309 137.744 293.309 133C293.309 128.256 297.119 124.375 301.863 124.375C303.659 124.375 305.312 124.95 306.75 125.884C304.809 123.656 301.934 122.219 298.7 122.219C292.806 122.219 288.062 127.034 288.062 133C288.062 138.966 292.806 143.781 298.7 143.781C301.934 143.781 304.809 142.344 306.75 140.116C305.384 141.05 303.731 141.625 301.863 141.625Z" fill="white"/>
<rect x="352" y="104" width="58" height="58" rx="29" fill="#EBF4FC"/>
<path d="M381 111.438V133H359.438C359.438 144.931 369.069 154.562 381 154.562C392.931 154.562 402.562 144.931 402.562 133C402.562 121.069 392.931 111.438 381 111.438Z" fill="#ED4C5C"/>
<path d="M381 111.438C369.069 111.438 359.438 121.069 359.438 133H381V111.438Z" fill="#2A5F9E"/>
<path d="M375.25 124.591L378.844 123.656L375.25 122.722L377.909 120.062L374.316 120.997L375.25 117.403L372.591 120.062L371.656 116.469L370.722 120.062L368.062 117.403L368.997 120.997L365.403 120.062L368.062 122.722L364.469 123.656L368.062 124.591L365.403 127.25L368.997 126.316L368.062 129.909L370.722 127.25L371.656 130.844L372.591 127.25L375.25 129.909L374.316 126.316L377.909 127.25L375.25 124.591Z" fill="white"/>
<path d="M371.656 127.753C373.919 127.753 375.753 125.919 375.753 123.656C375.753 121.394 373.919 119.559 371.656 119.559C369.394 119.559 367.56 121.394 367.56 123.656C367.56 125.919 369.394 127.753 371.656 127.753Z" fill="#428BC1"/>
<path d="M371.656 127.25C373.641 127.25 375.25 125.641 375.25 123.656C375.25 121.671 373.641 120.062 371.656 120.062C369.671 120.062 368.062 121.671 368.062 123.656C368.062 125.641 369.671 127.25 371.656 127.25Z" fill="white"/>
<rect x="8" y="200" width="58" height="58" rx="29" fill="#EBF4FC"/>
<path d="M27.1562 246.062V211.938C21.25 215.35 17.3125 221.716 17.3125 229C17.3125 236.284 21.25 242.65 27.1562 246.062Z" fill="#699635"/>
<path d="M37 209.312C33.3906 209.312 30.0438 210.297 27.1562 211.938V246.062C30.0438 247.769 33.3906 248.688 37 248.688C47.8938 248.688 56.6875 239.894 56.6875 229C56.6875 218.106 47.8938 209.312 37 209.312Z" fill="#ED4C5C"/>
<path d="M27.1553 221.125C22.824 221.125 19.2803 224.669 19.2803 229C19.2803 233.331 22.824 236.875 27.1553 236.875C31.4865 236.875 35.0303 233.331 35.0303 229C35.0303 224.669 31.4865 221.125 27.1553 221.125ZM27.1553 235.891C23.349 235.891 20.2646 232.806 20.2646 229C20.2646 225.194 23.349 222.109 27.1553 222.109C30.9615 222.109 34.0459 225.194 34.0459 229C34.0459 232.806 30.9615 235.891 27.1553 235.891Z" fill="#FFE62E"/>
<path d="M29.8463 236.678C29.715 236.809 29.5182 236.809 29.3869 236.678L20.3963 224.8C20.265 224.669 20.265 224.472 20.3963 224.341L20.5932 224.144C20.7244 224.013 20.9213 224.013 21.0525 224.144L30.0432 236.022C30.1744 236.153 30.1744 236.35 30.0432 236.481L29.8463 236.678Z" fill="#FFE62E"/>
<path d="M27.2861 220.797C27.483 220.797 27.6143 220.928 27.6143 221.125V236.875C27.6143 237.072 27.483 237.203 27.2861 237.203H26.958C26.7611 237.203 26.6299 237.072 26.6299 236.875V221.125C26.6299 220.928 26.7611 220.797 26.958 220.797H27.2861Z" fill="#FFE62E"/>
<path d="M34.9647 229.853L27.1553 228.475V229.459L34.8335 230.838C35.0303 230.838 35.1616 230.772 35.2272 230.575L35.2928 230.247C35.2928 230.116 35.1616 229.919 34.9647 229.853ZM27.1553 228.409L20.9866 224.078C20.8553 223.947 20.6585 224.013 20.5272 224.144L20.3303 224.406C20.1991 224.538 20.2647 224.734 20.396 224.866L27.1553 229.591V228.409Z" fill="#FFE62E"/>
<path d="M26.8928 227.688L20.7241 233.856C20.5928 233.988 20.5928 234.184 20.7241 234.316L20.9866 234.578C21.1178 234.709 21.3147 234.709 21.446 234.578L26.8928 229.131V227.688ZM27.1553 224.734L18.9522 228.606C18.821 228.672 18.6897 228.869 18.821 229.066L18.9522 229.394C19.0178 229.525 19.2147 229.656 19.4116 229.525L27.1553 225.85V224.734Z" fill="#FFE62E"/>
<path d="M34.4393 225.85L26.6299 224.472V225.456L34.308 226.834C34.5049 226.834 34.6361 226.769 34.7018 226.572L34.7674 226.244C34.7018 226.047 34.5705 225.85 34.4393 225.85ZM27.0893 233.528C26.958 233.594 26.8268 233.791 26.958 233.988L27.0893 234.316C27.1549 234.447 27.3518 234.578 27.5486 234.447L34.1111 231.428L34.4393 230.181L27.0893 233.528ZM27.0893 231.297L19.7393 228.606V229.656L27.0893 232.347V231.297Z" fill="#FFE62E"/>
<path d="M21.9707 233.462V234.447L31.6832 235.103C32.077 234.841 32.4051 234.512 32.7332 234.184L21.9707 233.462Z" fill="#FFE62E"/>
<path d="M23.875 225.719V230.312C23.875 232.15 25.3188 233.594 27.1562 233.594C28.9938 233.594 30.4375 232.15 30.4375 230.312V225.719H23.875Z" fill="white"/>
<path d="M27.1562 234.906C24.5969 234.906 22.5625 232.872 22.5625 230.312V224.406H31.75V230.312C31.75 232.872 29.7156 234.906 27.1562 234.906ZM25.1875 227.031V230.312C25.1875 231.428 26.0406 232.281 27.1562 232.281C28.2719 232.281 29.125 231.428 29.125 230.312V227.031H25.1875Z" fill="#ED4C5C"/>
<path d="M26.5654 227.294V228.344C26.5654 228.541 26.6967 228.672 26.8936 228.672H27.4186C27.6154 228.672 27.7467 228.541 27.7467 228.344V227.228H26.5654V227.294ZM26.5654 228.934V230.05C26.5654 230.247 26.6967 230.378 26.8936 230.378H27.4186C27.6154 230.378 27.7467 230.247 27.7467 230.05V228.934H26.5654ZM25.2529 228.934V230.05C25.2529 230.247 25.3842 230.378 25.5811 230.378H26.1061C26.3029 230.378 26.4342 230.247 26.4342 230.05V228.934H25.2529ZM27.8779 228.934V230.05C27.8779 230.247 28.0092 230.378 28.2061 230.378H28.7311C28.9279 230.378 29.0592 230.247 29.0592 230.05V228.934H27.8779ZM26.5654 230.509V231.625C26.5654 231.822 26.6967 231.953 26.8936 231.953H27.4186C27.6154 231.953 27.7467 231.822 27.7467 231.625V230.509H26.5654Z" fill="#0071BC"/>
<path d="M27.1566 229.722C27.2291 229.722 27.2879 229.663 27.2879 229.591C27.2879 229.518 27.2291 229.459 27.1566 229.459C27.0842 229.459 27.0254 229.518 27.0254 229.591C27.0254 229.663 27.0842 229.722 27.1566 229.722Z" fill="white"/>
<path d="M26.8939 230.05C26.9664 230.05 27.0252 229.991 27.0252 229.919C27.0252 229.846 26.9664 229.788 26.8939 229.788C26.8215 229.788 26.7627 229.846 26.7627 229.919C26.7627 229.991 26.8215 230.05 26.8939 230.05Z" fill="white"/>
<path d="M27.4193 230.05C27.4918 230.05 27.5506 229.991 27.5506 229.919C27.5506 229.846 27.4918 229.788 27.4193 229.788C27.3468 229.788 27.2881 229.846 27.2881 229.919C27.2881 229.991 27.3468 230.05 27.4193 230.05Z" fill="white"/>
<path d="M26.8939 229.394C26.9664 229.394 27.0252 229.335 27.0252 229.263C27.0252 229.19 26.9664 229.131 26.8939 229.131C26.8215 229.131 26.7627 229.19 26.7627 229.263C26.7627 229.335 26.8215 229.394 26.8939 229.394Z" fill="white"/>
<path d="M27.4193 229.394C27.4918 229.394 27.5506 229.335 27.5506 229.263C27.5506 229.19 27.4918 229.131 27.4193 229.131C27.3468 229.131 27.2881 229.19 27.2881 229.263C27.2881 229.335 27.3468 229.394 27.4193 229.394Z" fill="white"/>
<path d="M27.1566 228.081C27.2291 228.081 27.2879 228.022 27.2879 227.95C27.2879 227.878 27.2291 227.819 27.1566 227.819C27.0842 227.819 27.0254 227.878 27.0254 227.95C27.0254 228.022 27.0842 228.081 27.1566 228.081Z" fill="white"/>
<path d="M26.8939 228.409C26.9664 228.409 27.0252 228.351 27.0252 228.278C27.0252 228.206 26.9664 228.147 26.8939 228.147C26.8215 228.147 26.7627 228.206 26.7627 228.278C26.7627 228.351 26.8215 228.409 26.8939 228.409Z" fill="white"/>
<path d="M27.4193 228.409C27.4918 228.409 27.5506 228.351 27.5506 228.278C27.5506 228.206 27.4918 228.147 27.4193 228.147C27.3468 228.147 27.2881 228.206 27.2881 228.278C27.2881 228.351 27.3468 228.409 27.4193 228.409Z" fill="white"/>
<path d="M26.8939 227.753C26.9664 227.753 27.0252 227.694 27.0252 227.622C27.0252 227.549 26.9664 227.491 26.8939 227.491C26.8215 227.491 26.7627 227.549 26.7627 227.622C26.7627 227.694 26.8215 227.753 26.8939 227.753Z" fill="white"/>
<path d="M27.4193 227.753C27.4918 227.753 27.5506 227.694 27.5506 227.622C27.5506 227.549 27.4918 227.491 27.4193 227.491C27.3468 227.491 27.2881 227.549 27.2881 227.622C27.2881 227.694 27.3468 227.753 27.4193 227.753Z" fill="white"/>
<path d="M28.4691 229.722C28.5416 229.722 28.6004 229.663 28.6004 229.591C28.6004 229.518 28.5416 229.459 28.4691 229.459C28.3967 229.459 28.3379 229.518 28.3379 229.591C28.3379 229.663 28.3967 229.722 28.4691 229.722Z" fill="white"/>
<path d="M28.2064 230.05C28.2789 230.05 28.3377 229.991 28.3377 229.919C28.3377 229.846 28.2789 229.788 28.2064 229.788C28.134 229.788 28.0752 229.846 28.0752 229.919C28.0752 229.991 28.134 230.05 28.2064 230.05Z" fill="white"/>
<path d="M28.7318 230.05C28.8043 230.05 28.8631 229.991 28.8631 229.919C28.8631 229.846 28.8043 229.788 28.7318 229.788C28.6593 229.788 28.6006 229.846 28.6006 229.919C28.6006 229.991 28.6593 230.05 28.7318 230.05Z" fill="white"/>
<path d="M28.2064 229.394C28.2789 229.394 28.3377 229.335 28.3377 229.263C28.3377 229.19 28.2789 229.131 28.2064 229.131C28.134 229.131 28.0752 229.19 28.0752 229.263C28.0752 229.335 28.134 229.394 28.2064 229.394Z" fill="white"/>
<path d="M28.7318 229.394C28.8043 229.394 28.8631 229.335 28.8631 229.263C28.8631 229.19 28.8043 229.131 28.7318 229.131C28.6593 229.131 28.6006 229.19 28.6006 229.263C28.6006 229.335 28.6593 229.394 28.7318 229.394Z" fill="white"/>
<path d="M25.8441 229.722C25.9166 229.722 25.9754 229.663 25.9754 229.591C25.9754 229.518 25.9166 229.459 25.8441 229.459C25.7717 229.459 25.7129 229.518 25.7129 229.591C25.7129 229.663 25.7717 229.722 25.8441 229.722Z" fill="white"/>
<path d="M25.5814 230.05C25.6539 230.05 25.7127 229.991 25.7127 229.919C25.7127 229.846 25.6539 229.788 25.5814 229.788C25.509 229.788 25.4502 229.846 25.4502 229.919C25.4502 229.991 25.509 230.05 25.5814 230.05Z" fill="white"/>
<path d="M26.1068 230.05C26.1793 230.05 26.2381 229.991 26.2381 229.919C26.2381 229.846 26.1793 229.788 26.1068 229.788C26.0343 229.788 25.9756 229.846 25.9756 229.919C25.9756 229.991 26.0343 230.05 26.1068 230.05Z" fill="white"/>
<path d="M25.5814 229.394C25.6539 229.394 25.7127 229.335 25.7127 229.263C25.7127 229.19 25.6539 229.131 25.5814 229.131C25.509 229.131 25.4502 229.19 25.4502 229.263C25.4502 229.335 25.509 229.394 25.5814 229.394Z" fill="white"/>
<path d="M26.1068 229.394C26.1793 229.394 26.2381 229.335 26.2381 229.263C26.2381 229.19 26.1793 229.131 26.1068 229.131C26.0343 229.131 25.9756 229.19 25.9756 229.263C25.9756 229.335 26.0343 229.394 26.1068 229.394Z" fill="white"/>
<path d="M27.1566 231.363C27.2291 231.363 27.2879 231.304 27.2879 231.231C27.2879 231.159 27.2291 231.1 27.1566 231.1C27.0842 231.1 27.0254 231.159 27.0254 231.231C27.0254 231.304 27.0842 231.363 27.1566 231.363Z" fill="white"/>
<path d="M26.8939 231.691C26.9664 231.691 27.0252 231.632 27.0252 231.559C27.0252 231.487 26.9664 231.428 26.8939 231.428C26.8215 231.428 26.7627 231.487 26.7627 231.559C26.7627 231.632 26.8215 231.691 26.8939 231.691Z" fill="white"/>
<path d="M27.4193 231.691C27.4918 231.691 27.5506 231.632 27.5506 231.559C27.5506 231.487 27.4918 231.428 27.4193 231.428C27.3468 231.428 27.2881 231.487 27.2881 231.559C27.2881 231.632 27.3468 231.691 27.4193 231.691Z" fill="white"/>
<path d="M26.8939 231.034C26.9664 231.034 27.0252 230.976 27.0252 230.903C27.0252 230.831 26.9664 230.772 26.8939 230.772C26.8215 230.772 26.7627 230.831 26.7627 230.903C26.7627 230.976 26.8215 231.034 26.8939 231.034Z" fill="white"/>
<path d="M27.4193 231.034C27.4918 231.034 27.5506 230.976 27.5506 230.903C27.5506 230.831 27.4918 230.772 27.4193 230.772C27.3468 230.772 27.2881 230.831 27.2881 230.903C27.2881 230.976 27.3468 231.034 27.4193 231.034Z" fill="white"/>
<path d="M26.5 226.375H27.8125L27.6812 225.719V225.062H27.8125V224.734H27.6156V224.931H27.55V224.734H27.3531V224.931H27.2219V224.734H27.0906V224.931H26.9594V224.734H26.7625V224.931H26.6313V224.734H26.5V225.062H26.6313V225.719L26.5 226.375Z" fill="#FFE62E"/>
<path d="M27.3533 226.375H27.2877V226.112C27.2877 226.047 27.2221 225.981 27.1564 225.981C27.0908 225.981 27.0252 226.047 27.0252 226.112V226.375H26.9596V226.112C26.9596 225.981 27.0252 225.916 27.1564 225.916C27.2877 225.916 27.3533 225.981 27.3533 226.112V226.375ZM27.1564 225.653H26.7627V225.325C26.7627 225.194 26.8283 225.128 26.9596 225.128C27.0908 225.128 27.1564 225.194 27.1564 225.325V225.653ZM26.8283 225.587H27.0908V225.325C27.0908 225.259 27.0252 225.194 26.9596 225.194C26.8939 225.194 26.8283 225.259 26.8283 225.325V225.587ZM27.5502 225.653H27.1564V225.325C27.1564 225.194 27.2221 225.128 27.3533 225.128C27.4846 225.128 27.5502 225.194 27.5502 225.325V225.653ZM27.2221 225.587H27.4846V225.325C27.4846 225.259 27.4189 225.194 27.3533 225.194C27.2877 225.194 27.2221 225.259 27.2221 225.325V225.587Z" fill="#3E4347"/>
<path d="M23.2188 226.375H24.5312L24.4 225.719V225.062H24.5312V224.734H24.3344V224.931H24.2688V224.734H24.0719V224.931H23.9406V224.734H23.8094V224.931H23.6781V224.734H23.4812V224.931H23.35V224.734H23.2188V225.062H23.35V225.719L23.2188 226.375Z" fill="#FFE62E"/>
<path d="M24.0721 226.375H24.0064V226.112C24.0064 226.047 23.9408 225.981 23.8752 225.981C23.8096 225.981 23.7439 226.047 23.7439 226.112V226.375H23.6783V226.112C23.6783 225.981 23.7439 225.916 23.8752 225.916C24.0064 225.916 24.0721 225.981 24.0721 226.112V226.375ZM23.8752 225.653H23.4814V225.325C23.4814 225.194 23.5471 225.128 23.6783 225.128C23.8096 225.128 23.8752 225.194 23.8752 225.325V225.653ZM23.5471 225.587H23.8096V225.325C23.8096 225.259 23.7439 225.194 23.6783 225.194C23.6127 225.194 23.5471 225.259 23.5471 225.325V225.587Z" fill="#3E4347"/>
<path d="M24.2688 225.653H23.875V225.325C23.875 225.194 23.9406 225.128 24.0719 225.128C24.2031 225.128 24.2688 225.194 24.2688 225.325V225.653ZM23.9406 225.587H24.2031V225.325C24.2031 225.259 24.1375 225.194 24.0719 225.194C24.0063 225.194 23.9406 225.259 23.9406 225.325V225.587Z" fill="#3E4347"/>
<path d="M23.2188 230.247H24.5312L24.4 229.591V228.934H24.5312V228.606H24.4V228.803H24.2688V228.606H24.1375V228.803H23.9406V228.606H23.8094V228.803H23.6781V228.606H23.5469V228.803H23.4156V228.606H23.2188V228.934H23.4156V229.591L23.2188 230.247Z" fill="#FFE62E"/>
<path d="M24.0721 230.247H24.0064V229.984C24.0064 229.919 23.9408 229.853 23.8752 229.853C23.8096 229.853 23.7439 229.919 23.7439 229.984V230.247H23.6783V229.984C23.6783 229.853 23.7439 229.788 23.8752 229.788C24.0064 229.788 24.0721 229.853 24.0721 229.984V230.247ZM23.8752 229.525H23.4814V229.197C23.4814 229.066 23.5471 229 23.6783 229C23.8096 229 23.8752 229.066 23.8752 229.197V229.525ZM23.5471 229.459H23.8096V229.197C23.8096 229.131 23.7439 229.066 23.6783 229.066C23.6127 229.066 23.5471 229.131 23.5471 229.197V229.459ZM24.3346 229.525H23.9408V229.197C23.9408 229.066 24.0064 229 24.1377 229C24.2689 229 24.3346 229.066 24.3346 229.197V229.525ZM24.0064 229.459H24.2689V229.197C24.2689 229.131 24.2033 229.066 24.1377 229.066C24.0721 229.066 24.0064 229.131 24.0064 229.197V229.459Z" fill="#3E4347"/>
<path d="M29.7812 230.312H31.0938L30.9625 229.656V229H31.0938V228.737H30.8969V228.869H30.8313V228.737H30.6344V228.869H30.5031V228.737H30.3719V228.869H30.2406V228.737H30.0437V228.869H29.9125V228.737H29.7812V229H29.9125V229.656L29.7812 230.312Z" fill="#FFE62E"/>
<path d="M30.6346 230.312H30.5689V230.05C30.5689 229.984 30.5033 229.919 30.4377 229.919C30.3721 229.919 30.3064 229.984 30.3064 230.05V230.312H30.2408V230.05C30.2408 229.919 30.3064 229.853 30.4377 229.853C30.5689 229.853 30.6346 229.919 30.6346 230.05V230.312ZM30.4377 229.591H30.0439V229.262C30.0439 229.131 30.1096 229.066 30.2408 229.066C30.3721 229.066 30.4377 229.131 30.4377 229.262V229.591ZM30.1096 229.525H30.3721V229.262C30.3721 229.197 30.3064 229.131 30.2408 229.131C30.1752 229.131 30.1096 229.197 30.1096 229.262V229.525ZM30.8314 229.591H30.4377V229.262C30.4377 229.131 30.5033 229.066 30.6346 229.066C30.7658 229.066 30.8314 229.131 30.8314 229.262V229.591ZM30.5033 229.525H30.7658V229.262C30.7658 229.197 30.7002 229.131 30.6346 229.131C30.5689 229.131 30.5033 229.197 30.5033 229.262V229.525Z" fill="#3E4347"/>
<path d="M29.7812 226.375H31.0938L30.9625 225.719V225.062H31.0938V224.734H30.8969V224.931H30.8313V224.734H30.6344V224.931H30.5031V224.734H30.3719V224.931H30.2406V224.734H30.0437V224.931H29.9125V224.734H29.7812V225.062H29.9125V225.719L29.7812 226.375Z" fill="#FFE62E"/>
<path d="M30.6346 226.375H30.5689V226.112C30.5689 226.047 30.5033 225.981 30.4377 225.981C30.3721 225.981 30.3064 226.047 30.3064 226.112V226.375H30.2408V226.112C30.2408 225.981 30.3064 225.916 30.4377 225.916C30.5689 225.916 30.6346 225.981 30.6346 226.112V226.375ZM30.4377 225.653H30.0439V225.325C30.0439 225.194 30.1096 225.128 30.2408 225.128C30.3721 225.128 30.4377 225.194 30.4377 225.325V225.653ZM30.1096 225.587H30.3721V225.325C30.3721 225.259 30.3064 225.194 30.2408 225.194C30.1752 225.194 30.1096 225.259 30.1096 225.325V225.587ZM30.8314 225.653H30.4377V225.325C30.4377 225.194 30.5033 225.128 30.6346 225.128C30.7658 225.128 30.8314 225.194 30.8314 225.325V225.653ZM30.5033 225.587H30.7658V225.325C30.7658 225.259 30.7002 225.194 30.6346 225.194C30.5689 225.194 30.5033 225.259 30.5033 225.325V225.587Z" fill="#3E4347"/>
<path d="M25.3187 233.988L26.2375 233.003L25.6469 232.675L25.1875 232.216L25.3187 232.084L25.1219 231.888L24.9906 232.019L25.1219 232.15L25.0563 232.216L24.925 232.084L24.7937 232.216L24.925 232.281L24.7937 232.413L24.7281 232.281L24.5969 232.413L24.7281 232.544L24.5969 232.609L24.5312 232.478L24.4 232.609L24.4656 232.741L24.4 232.806L24.3344 232.675L24.2031 232.806L24.4 233.003H24.4656L24.5312 232.938L24.9906 233.397L25.3187 233.988Z" fill="#FFE62E"/>
<path d="M25.6465 233.2C25.5809 233.134 25.5152 233.134 25.4496 233.2C25.384 233.266 25.384 233.331 25.4496 233.397L25.6465 233.594L25.5809 233.659L25.384 233.462C25.3184 233.397 25.3184 233.266 25.384 233.2C25.4496 233.134 25.5809 233.134 25.6465 233.2ZM25.2527 233.003L24.9902 233.266L24.7934 233.069C24.7277 233.003 24.7277 232.872 24.7934 232.806C24.859 232.741 24.9902 232.741 25.0559 232.806L25.2527 233.003ZM24.9902 233.2L25.1871 233.003L24.9902 232.806C24.9246 232.741 24.859 232.741 24.7934 232.806C24.7277 232.872 24.7277 232.937 24.7934 233.003L24.9902 233.2ZM25.5809 232.675L25.3184 232.937L25.1215 232.741C25.0559 232.675 25.0559 232.544 25.1215 232.478C25.1871 232.412 25.3184 232.412 25.384 232.478L25.5809 232.675ZM25.3184 232.872L25.5152 232.675L25.3184 232.478C25.2527 232.412 25.1871 232.412 25.1215 232.478C25.0559 232.544 25.0559 232.609 25.1215 232.675L25.3184 232.872Z" fill="#3E4347"/>
<path d="M28.9939 233.988L28.0752 233.003L28.6002 232.675L29.0596 232.216L28.9939 232.084L29.1908 231.888L29.3221 232.019L29.1908 232.15L29.2564 232.216L29.3877 232.084L29.5189 232.216L29.3877 232.281L29.5189 232.413L29.5846 232.281L29.7158 232.413L29.5846 232.544L29.7158 232.609L29.7814 232.478L29.9127 232.609L29.7814 232.741L29.9127 232.806L29.9783 232.675L30.1096 232.806L29.9127 233.003H29.8471L29.7814 232.938L29.3221 233.397L28.9939 233.988Z" fill="#FFE62E"/>
<path d="M28.4033 233.331L28.6658 233.2C28.7314 233.134 28.7971 233.134 28.8627 233.2C28.9283 233.266 28.9283 233.331 28.8627 233.397L28.6002 233.594L28.6658 233.659L28.8627 233.462C28.9283 233.397 28.9283 233.266 28.8627 233.2C28.7971 233.134 28.6658 233.134 28.6002 233.2L28.4033 233.331ZM29.2564 232.806C29.3221 232.741 29.4533 232.741 29.5189 232.806C29.5846 232.872 29.5846 233.003 29.5189 233.069L29.3221 233.266L29.0596 233.003L29.2564 232.806ZM29.4533 233.003C29.5189 232.937 29.5189 232.872 29.4533 232.806C29.3877 232.741 29.3221 232.741 29.2564 232.806L29.1252 233.003L29.3221 233.2L29.4533 233.003ZM28.9283 232.478C28.9939 232.412 29.1252 232.412 29.1908 232.478C29.2564 232.544 29.2564 232.675 29.1908 232.741L28.9939 232.937L28.7314 232.675L28.9283 232.478ZM29.1908 232.675C29.2564 232.609 29.2564 232.544 29.1908 232.478C29.1252 232.412 29.0596 232.412 28.9939 232.478L28.7971 232.675L28.9939 232.872L29.1908 232.675Z" fill="#3E4347"/>
<rect x="88" y="200" width="58" height="58" rx="29" fill="#EBF4FC"/>
<path d="M117.875 229L102.278 244.597C106.16 248.263 111.406 250.562 117.156 250.562C129.088 250.562 138.719 240.931 138.719 229H117.875Z" fill="#ED4C5C"/>
<path d="M138.719 229C138.719 217.069 129.088 207.438 117.156 207.438C111.406 207.438 106.16 209.738 102.278 213.403L117.875 229H138.719Z" fill="#428BC1"/>
<path d="M102.278 213.403C98.1813 217.356 95.5938 222.891 95.5938 229C95.5938 235.109 98.1813 240.644 102.278 244.597L117.875 229L102.278 213.403Z" fill="#F9F9F9"/>
<path d="M103.5 215.775L102.925 216.781L103.715 217.572L102.637 217.428L102.062 218.434L101.919 217.356L100.84 217.213L101.847 216.638L101.703 215.559L102.494 216.35L103.5 215.775ZM103.644 240.5L102.853 241.363L103.428 242.297L102.422 241.866L101.631 242.728L101.775 241.578L100.697 241.147L101.847 240.931L101.99 239.781L102.565 240.788L103.644 240.5ZM116.078 229L115 229.359V230.438L114.281 229.575L113.203 229.863L113.922 229L113.203 228.138L114.281 228.425L115 227.563V228.641L116.078 229ZM111.19 227.922L110.759 227.563L106.087 228.569H106.159L110.544 227.419L109.969 227.059L106.231 228.497L109.322 225.909L109.25 225.263L106.015 228.569H105.944L109.178 224.975L109.106 224.472L108.603 224.544L105.728 228.281V228.209L108.387 224.4L107.74 224.472L105.8 227.994L106.519 223.969L106.087 223.538L105.656 228.209V228.281L105.8 223.394L105.44 223.034L105.081 223.394L105.225 228.281V228.209L104.865 223.609L104.434 224.041L105.153 228.066L103.212 224.544L102.565 224.472L105.225 228.281V228.353L102.278 224.472L101.775 224.4L101.703 224.903L104.937 228.497H104.865L101.631 225.191L101.559 225.838L104.65 228.425L100.912 226.988L100.409 227.347L104.794 228.497H104.865L100.122 227.563L99.6904 227.85L99.9779 228.281L104.722 228.928H104.65L100.122 228.497L100.481 229L104.506 228.928L100.769 230.438L100.625 231.084L104.722 229.072H104.794L100.553 231.372L100.409 231.875L100.912 232.019L105.009 229.431V229.503L101.272 232.163L101.847 232.306L104.865 229.647L102.781 233.169L103.069 233.744L104.937 229.575L105.009 229.503L103.212 234.031L103.428 234.534L103.931 234.319L105.44 229.647V229.719L104.219 234.175L104.794 233.888L105.44 229.863L106.087 233.888L106.662 234.175L105.44 229.719V229.647L106.95 234.319L107.453 234.534L107.669 234.031L105.872 229.503L105.944 229.575L107.812 233.744L108.1 233.169L106.087 229.647L109.106 232.306L109.681 232.163L105.944 229.503V229.431L110.04 232.019L110.544 231.875L110.4 231.372L106.159 229.072H106.231L110.328 231.084L110.112 230.438L106.303 229.072L110.328 229.144L110.687 228.641L106.159 229.072H106.087L110.831 228.425L111.19 227.922Z" fill="#FFCE31"/>
<path d="M105.44 232.234C107.227 232.234 108.675 230.786 108.675 229C108.675 227.214 107.227 225.766 105.44 225.766C103.654 225.766 102.206 227.214 102.206 229C102.206 230.786 103.654 232.234 105.44 232.234Z" fill="#FFCE31"/>
<rect x="168" y="200" width="58" height="58" rx="29" fill="#EBF4FC"/>
<path d="M196.772 207.438C187.428 207.438 179.45 213.475 176.503 221.812H217.184C214.165 213.475 206.187 207.438 196.772 207.438Z" fill="#F9F9F9"/>
<path d="M196.772 250.562C206.187 250.562 214.165 244.525 217.112 236.188H176.503C179.45 244.597 187.428 250.562 196.772 250.562Z" fill="#ED4C5C"/>
<path d="M176.503 221.812C175.713 224.041 175.281 226.484 175.281 229C175.281 231.516 175.713 233.959 176.503 236.188H217.184C217.975 233.959 218.406 231.516 218.406 229C218.406 226.484 217.975 224.041 217.184 221.812H176.503Z" fill="#428BC1"/>
<rect x="248" y="200" width="58" height="58" rx="29" fill="#EBF4FC"/>
<path d="M282.103 208.084V225.838H255.653C255.509 226.844 255.438 227.922 255.438 229C255.438 240.931 265.069 250.563 277 250.563C288.931 250.563 298.562 240.931 298.562 229C298.562 218.866 291.519 210.384 282.103 208.084Z" fill="#2A5F9E"/>
<path d="M282.103 208.084C281.96 208.012 281.816 208.012 281.672 208.012V225.406H272.4V207.941C268.95 208.659 265.788 210.312 263.128 212.469V225.406H255.725C255.725 225.55 255.653 225.694 255.653 225.837H282.103V208.084Z" fill="white"/>
<path d="M255.726 225.406H263.129V212.469C259.319 215.703 256.588 220.231 255.726 225.406Z" fill="#2A5F9E"/>
<path d="M272.399 207.941V225.406H281.671V207.941C280.162 207.581 278.581 207.438 276.999 207.438C275.418 207.438 273.909 207.581 272.399 207.941Z" fill="#ED4C5C"/>
<path d="M284.762 237.481V234.103H286.127L287.133 232.45H284.69V231.372H287.78L288.858 229.647H278.652L279.73 231.372H282.821V237.409L280.521 233.744L277.358 238.703H278.868L279.155 238.128H281.743L283.755 241.722L285.768 238.128H288.355L288.643 238.703H290.152L286.99 233.744L284.762 237.481ZM279.874 237.05L280.521 235.9L281.168 237.05H279.874ZM286.487 237.05L287.133 235.9L287.78 237.05H286.487ZM284.187 244.237L283.827 243.016L283.396 244.237H282.102L283.18 245.028L282.749 246.25L283.827 245.459L284.833 246.25L284.474 245.028L285.48 244.237H284.187ZM280.377 241.362L280.018 240.141L279.587 241.362H278.293L279.371 242.153L278.94 243.375L280.018 242.584L281.024 243.375L280.665 242.153L281.671 241.362H280.377ZM287.996 241.362L287.637 240.141L287.205 241.362H285.912L286.99 242.153L286.558 243.375L287.637 242.584L288.643 243.375L288.283 242.153L289.29 241.362H287.996Z" fill="white"/>
<path d="M276.784 234.031L277.862 234.822L277.431 233.6L278.509 232.809H277.215L276.784 231.587L276.425 232.809H275.131L276.137 233.6L275.778 234.822L276.784 234.031ZM291.518 233.6L292.525 232.809H291.231L290.871 231.587L290.44 232.809H289.146L290.225 233.6L289.793 234.822L290.871 234.031L291.878 234.822L291.518 233.6Z" fill="white"/>
<rect x="328" y="192" width="74" height="74" rx="37" fill="#EBF4FC"/>
<path d="M335.743 229C335.743 241.691 343.881 252.444 355.118 256.416V201.584C343.784 205.556 335.743 216.309 335.743 229Z" fill="#83BF4F"/>
<path d="M393.868 229C393.868 216.309 385.731 205.556 374.493 201.584V256.416C385.731 252.444 393.868 241.691 393.868 229Z" fill="#FF8736"/>
<path d="M355.118 256.416C358.121 257.481 361.415 258.062 364.806 258.062C368.196 258.062 371.49 257.481 374.493 256.416V201.584C371.393 200.519 368.196 199.938 364.806 199.938C361.415 199.938 358.121 200.519 355.118 201.584V256.416Z" fill="white"/>
</svg>
