<svg width="50" height="50" viewBox="0 0 50 50" fill="none" xmlns="http://www.w3.org/2000/svg">
<rect x="0.5" y="0.5" width="49" height="49" rx="24.5" stroke="white" stroke-opacity="0.125"/>
<path d="M25 18.4458C27.1205 18.4458 27.4096 18.4458 28.2771 18.4458C29.0482 18.4458 29.4337 18.6386 29.7229 18.7349C30.1084 18.9277 30.3976 19.0241 30.6867 19.3133C30.9759 19.6024 31.1687 19.8916 31.2651 20.2771C31.3614 20.5663 31.4578 20.9518 31.5542 21.7229C31.5542 22.5904 31.5542 22.7831 31.5542 25C31.5542 27.2169 31.5542 27.4096 31.5542 28.2771C31.5542 29.0482 31.3614 29.4337 31.2651 29.7229C31.0723 30.1084 30.9759 30.3976 30.6867 30.6867C30.3976 30.9759 30.1084 31.1687 29.7229 31.2651C29.4337 31.3614 29.0482 31.4578 28.2771 31.5542C27.4096 31.5542 27.2169 31.5542 25 31.5542C22.7831 31.5542 22.5904 31.5542 21.7229 31.5542C20.9518 31.5542 20.5663 31.3614 20.2771 31.2651C19.8916 31.0723 19.6024 30.9759 19.3133 30.6867C19.0241 30.3976 18.8313 30.1084 18.7349 29.7229C18.6386 29.4337 18.5422 29.0482 18.4458 28.2771C18.4458 27.4096 18.4458 27.2169 18.4458 25C18.4458 22.7831 18.4458 22.5904 18.4458 21.7229C18.4458 20.9518 18.6386 20.5663 18.7349 20.2771C18.9277 19.8916 19.0241 19.6024 19.3133 19.3133C19.6024 19.0241 19.8916 18.8313 20.2771 18.7349C20.5663 18.6386 20.9518 18.5422 21.7229 18.4458C22.5904 18.4458 22.8795 18.4458 25 18.4458ZM25 17C22.7831 17 22.5904 17 21.7229 17C20.8554 17 20.2771 17.1928 19.7952 17.3855C19.3133 17.5783 18.8313 17.8675 18.3494 18.3494C17.8675 18.8313 17.6747 19.2169 17.3855 19.7952C17.1928 20.2771 17.0964 20.8554 17 21.7229C17 22.5904 17 22.8795 17 25C17 27.2169 17 27.4096 17 28.2771C17 29.1446 17.1928 29.7229 17.3855 30.2048C17.5783 30.6867 17.8675 31.1687 18.3494 31.6506C18.8313 32.1325 19.2169 32.3253 19.7952 32.6145C20.2771 32.8072 20.8554 32.9036 21.7229 33C22.5904 33 22.8795 33 25 33C27.1205 33 27.4096 33 28.2771 33C29.1446 33 29.7229 32.8072 30.2048 32.6145C30.6867 32.4217 31.1687 32.1325 31.6506 31.6506C32.1325 31.1687 32.3253 30.7831 32.6145 30.2048C32.8072 29.7229 32.9036 29.1446 33 28.2771C33 27.4096 33 27.1205 33 25C33 22.8795 33 22.5904 33 21.7229C33 20.8554 32.8072 20.2771 32.6145 19.7952C32.4217 19.3133 32.1325 18.8313 31.6506 18.3494C31.1687 17.8675 30.7831 17.6747 30.2048 17.3855C29.7229 17.1928 29.1446 17.0964 28.2771 17C27.4096 17 27.2169 17 25 17Z" fill="white"/>
<path d="M25 20.8554C22.6867 20.8554 20.8554 22.6867 20.8554 25C20.8554 27.3133 22.6867 29.1446 25 29.1446C27.3133 29.1446 29.1446 27.3133 29.1446 25C29.1446 22.6867 27.3133 20.8554 25 20.8554ZM25 27.6988C23.5542 27.6988 22.3012 26.5422 22.3012 25C22.3012 23.5542 23.4578 22.3012 25 22.3012C26.4458 22.3012 27.6988 23.4578 27.6988 25C27.6988 26.4458 26.4458 27.6988 25 27.6988Z" fill="white"/>
<path d="M29.241 21.7229C29.7733 21.7229 30.2048 21.2914 30.2048 20.759C30.2048 20.2267 29.7733 19.7952 29.241 19.7952C28.7086 19.7952 28.2771 20.2267 28.2771 20.759C28.2771 21.2914 28.7086 21.7229 29.241 21.7229Z" fill="white"/>
</svg>
