<svg width="368" height="278" viewBox="0 0 368 278" fill="none" xmlns="http://www.w3.org/2000/svg">
<rect x="103.886" y="37.5" width="151.229" height="151.229" rx="75.6145" fill="#D7F5E4"/>
<rect x="127.886" y="61.5" width="103.229" height="103.229" rx="51.6145" fill="url(#paint0_linear_48_29)"/>
<mask id="mask0_48_29" style="mask-type:alpha" maskUnits="userSpaceOnUse" x="138" y="71" width="84" height="85">
<rect x="138" y="71.5" width="84" height="84" fill="#D9D9D9"/>
</mask>
<g mask="url(#mask0_48_29)">
<path d="M172.999 119.1L193.649 98.45C194.29 97.8083 195.107 97.4875 196.099 97.4875C197.09 97.4875 197.907 97.8083 198.549 98.45C199.19 99.0917 199.511 99.9083 199.511 100.9C199.511 101.892 199.19 102.708 198.549 103.35L175.449 126.45C174.749 127.15 173.932 127.5 172.999 127.5C172.065 127.5 171.249 127.15 170.549 126.45L161.449 117.35C160.807 116.708 160.486 115.892 160.486 114.9C160.486 113.908 160.807 113.092 161.449 112.45C162.09 111.808 162.907 111.487 163.899 111.487C164.89 111.487 165.707 111.808 166.349 112.45L172.999 119.1Z" fill="#F6FBFF"/>
</g>
<rect x="31" y="222.729" width="297" height="20" rx="10" fill="#E0EFE5"/>
<rect x="35" y="226.729" width="289" height="12" rx="6" fill="url(#paint1_linear_48_29)"/>
<path d="M32.232 272.729V260.809H36.136C37.3733 260.809 38.4453 261.06 39.352 261.561C40.2693 262.052 40.9787 262.745 41.48 263.641C41.9813 264.537 42.232 265.577 42.232 266.761C42.232 267.934 41.9813 268.974 41.48 269.881C40.9787 270.777 40.2693 271.476 39.352 271.977C38.4453 272.478 37.3733 272.729 36.136 272.729H32.232ZM34.12 271.049H36.168C37.0107 271.049 37.7413 270.873 38.36 270.521C38.9893 270.169 39.4747 269.673 39.816 269.033C40.1573 268.393 40.328 267.636 40.328 266.761C40.328 265.886 40.152 265.134 39.8 264.505C39.4587 263.865 38.9787 263.369 38.36 263.017C37.7413 262.665 37.0107 262.489 36.168 262.489H34.12V271.049ZM47.0034 272.921C46.3527 272.921 45.782 272.777 45.2914 272.489C44.8007 272.19 44.4167 271.78 44.1394 271.257C43.8727 270.724 43.7394 270.11 43.7394 269.417V264.073H45.5474V269.257C45.5474 269.652 45.6274 269.998 45.7874 270.297C45.9474 270.596 46.1714 270.83 46.4594 271.001C46.7474 271.161 47.078 271.241 47.4514 271.241C47.8354 271.241 48.1714 271.156 48.4594 270.985C48.7474 270.814 48.9714 270.574 49.1314 270.265C49.302 269.956 49.3874 269.593 49.3874 269.177V264.073H51.1794V272.729H49.4674V271.033L49.6594 271.257C49.4567 271.79 49.1207 272.201 48.6514 272.489C48.182 272.777 47.6327 272.921 47.0034 272.921ZM57.9144 272.921C57.2424 272.921 56.629 272.782 56.0744 272.505C55.5304 272.228 55.109 271.828 54.8104 271.305L55.0184 270.969V272.729H53.2904V260.617H55.0984V265.865L54.8104 265.449C55.1304 264.958 55.557 264.574 56.0904 264.297C56.6237 264.02 57.2317 263.881 57.9144 263.881C58.7357 263.881 59.4717 264.078 60.1224 264.473C60.7837 264.868 61.301 265.406 61.6744 266.089C62.0584 266.772 62.2504 267.54 62.2504 268.393C62.2504 269.246 62.0584 270.014 61.6744 270.697C61.301 271.38 60.789 271.924 60.1384 272.329C59.4877 272.724 58.7464 272.921 57.9144 272.921ZM57.7384 271.241C58.2504 271.241 58.7037 271.118 59.0984 270.873C59.493 270.628 59.8024 270.292 60.0264 269.865C60.261 269.428 60.3784 268.937 60.3784 268.393C60.3784 267.849 60.261 267.364 60.0264 266.937C59.8024 266.51 59.493 266.174 59.0984 265.929C58.7037 265.684 58.2504 265.561 57.7384 265.561C57.237 265.561 56.7837 265.684 56.3784 265.929C55.9837 266.174 55.669 266.51 55.4344 266.937C55.2104 267.364 55.0984 267.849 55.0984 268.393C55.0984 268.937 55.2104 269.428 55.4344 269.865C55.669 270.292 55.9837 270.628 56.3784 270.873C56.7837 271.118 57.237 271.241 57.7384 271.241ZM68.6331 272.921C67.9611 272.921 67.3478 272.782 66.7931 272.505C66.2491 272.228 65.8278 271.828 65.5291 271.305L65.7371 270.969V272.729H64.0091V260.617H65.8171V265.865L65.5291 265.449C65.8491 264.958 66.2758 264.574 66.8091 264.297C67.3425 264.02 67.9505 263.881 68.6331 263.881C69.4545 263.881 70.1905 264.078 70.8411 264.473C71.5025 264.868 72.0198 265.406 72.3931 266.089C72.7771 266.772 72.9691 267.54 72.9691 268.393C72.9691 269.246 72.7771 270.014 72.3931 270.697C72.0198 271.38 71.5078 271.924 70.8571 272.329C70.2065 272.724 69.4651 272.921 68.6331 272.921ZM68.4571 271.241C68.9691 271.241 69.4225 271.118 69.8171 270.873C70.2118 270.628 70.5211 270.292 70.7451 269.865C70.9798 269.428 71.0971 268.937 71.0971 268.393C71.0971 267.849 70.9798 267.364 70.7451 266.937C70.5211 266.51 70.2118 266.174 69.8171 265.929C69.4225 265.684 68.9691 265.561 68.4571 265.561C67.9558 265.561 67.5025 265.684 67.0971 265.929C66.7025 266.174 66.3878 266.51 66.1531 266.937C65.9291 267.364 65.8171 267.849 65.8171 268.393C65.8171 268.937 65.9291 269.428 66.1531 269.865C66.3878 270.292 66.7025 270.628 67.0971 270.873C67.5025 271.118 67.9558 271.241 68.4571 271.241ZM78.7919 272.921C77.9279 272.921 77.1599 272.724 76.4879 272.329C75.8265 271.924 75.3092 271.38 74.9359 270.697C74.5625 270.004 74.3759 269.23 74.3759 268.377C74.3759 267.502 74.5625 266.729 74.9359 266.057C75.3199 265.385 75.8319 264.857 76.4719 264.473C77.1119 264.078 77.8372 263.881 78.6479 263.881C79.2985 263.881 79.8799 263.993 80.3919 264.217C80.9039 264.441 81.3359 264.75 81.6879 265.145C82.0399 265.529 82.3065 265.972 82.4879 266.473C82.6799 266.974 82.7759 267.508 82.7759 268.073C82.7759 268.212 82.7705 268.356 82.7599 268.505C82.7492 268.654 82.7279 268.793 82.6959 268.921H75.7999V267.481H81.6719L80.8079 268.137C80.9145 267.614 80.8772 267.15 80.6959 266.745C80.5252 266.329 80.2585 266.004 79.8959 265.769C79.5439 265.524 79.1279 265.401 78.6479 265.401C78.1679 265.401 77.7412 265.524 77.3679 265.769C76.9945 266.004 76.7065 266.345 76.5039 266.793C76.3012 267.23 76.2212 267.764 76.2639 268.393C76.2105 268.98 76.2905 269.492 76.5039 269.929C76.7279 270.366 77.0372 270.708 77.4319 270.953C77.8372 271.198 78.2959 271.321 78.8079 271.321C79.3305 271.321 79.7732 271.204 80.1359 270.969C80.5092 270.734 80.8025 270.43 81.0159 270.057L82.4879 270.777C82.3172 271.182 82.0505 271.55 81.6879 271.881C81.3359 272.201 80.9092 272.457 80.4079 272.649C79.9172 272.83 79.3785 272.921 78.7919 272.921ZM88.5404 272.921C87.7084 272.921 86.9617 272.724 86.3004 272.329C85.6497 271.924 85.1324 271.38 84.7484 270.697C84.375 270.014 84.1884 269.246 84.1884 268.393C84.1884 267.54 84.3804 266.772 84.7644 266.089C85.1484 265.406 85.6657 264.868 86.3164 264.473C86.967 264.078 87.703 263.881 88.5244 263.881C89.2177 263.881 89.831 264.02 90.3644 264.297C90.8977 264.574 91.319 264.958 91.6284 265.449L91.3564 265.865V260.617H93.1484V272.729H91.4364V270.969L91.6444 271.305C91.3457 271.828 90.919 272.228 90.3644 272.505C89.8097 272.782 89.2017 272.921 88.5404 272.921ZM88.7164 271.241C89.2177 271.241 89.6657 271.118 90.0604 270.873C90.4657 270.628 90.7804 270.292 91.0044 269.865C91.239 269.428 91.3564 268.937 91.3564 268.393C91.3564 267.849 91.239 267.364 91.0044 266.937C90.7804 266.51 90.4657 266.174 90.0604 265.929C89.6657 265.684 89.2177 265.561 88.7164 265.561C88.215 265.561 87.7617 265.684 87.3564 265.929C86.951 266.174 86.6364 266.51 86.4124 266.937C86.1884 267.364 86.0764 267.849 86.0764 268.393C86.0764 268.937 86.1884 269.428 86.4124 269.865C86.6364 270.292 86.9457 270.628 87.3404 270.873C87.7457 271.118 88.2044 271.241 88.7164 271.241ZM99.816 272.729V262.409H97.528V260.809H101.688V272.729H99.816ZM109.01 272.921C108.06 272.921 107.228 272.665 106.514 272.153C105.799 271.63 105.239 270.91 104.834 269.993C104.439 269.065 104.242 267.988 104.242 266.761C104.242 265.524 104.439 264.446 104.834 263.529C105.239 262.612 105.794 261.897 106.498 261.385C107.212 260.873 108.044 260.617 108.994 260.617C109.943 260.617 110.77 260.873 111.474 261.385C112.188 261.897 112.743 262.617 113.138 263.545C113.543 264.462 113.746 265.534 113.746 266.761C113.746 267.988 113.548 269.065 113.154 269.993C112.759 270.91 112.204 271.63 111.49 272.153C110.786 272.665 109.959 272.921 109.01 272.921ZM109.01 271.193C109.596 271.193 110.103 271.012 110.53 270.649C110.956 270.286 111.287 269.774 111.522 269.113C111.756 268.452 111.874 267.668 111.874 266.761C111.874 265.854 111.756 265.07 111.522 264.409C111.287 263.748 110.956 263.236 110.53 262.873C110.103 262.51 109.591 262.329 108.994 262.329C108.407 262.329 107.9 262.51 107.474 262.873C107.047 263.236 106.716 263.748 106.482 264.409C106.247 265.07 106.13 265.854 106.13 266.761C106.13 267.657 106.247 268.441 106.482 269.113C106.716 269.774 107.047 270.286 107.474 270.649C107.911 271.012 108.423 271.193 109.01 271.193ZM120.463 272.921C119.513 272.921 118.681 272.665 117.967 272.153C117.252 271.63 116.692 270.91 116.287 269.993C115.892 269.065 115.695 267.988 115.695 266.761C115.695 265.524 115.892 264.446 116.287 263.529C116.692 262.612 117.247 261.897 117.951 261.385C118.665 260.873 119.497 260.617 120.447 260.617C121.396 260.617 122.223 260.873 122.927 261.385C123.641 261.897 124.196 262.617 124.591 263.545C124.996 264.462 125.199 265.534 125.199 266.761C125.199 267.988 125.001 269.065 124.607 269.993C124.212 270.91 123.657 271.63 122.943 272.153C122.239 272.665 121.412 272.921 120.463 272.921ZM120.463 271.193C121.049 271.193 121.556 271.012 121.983 270.649C122.409 270.286 122.74 269.774 122.975 269.113C123.209 268.452 123.327 267.668 123.327 266.761C123.327 265.854 123.209 265.07 122.975 264.409C122.74 263.748 122.409 263.236 121.983 262.873C121.556 262.51 121.044 262.329 120.447 262.329C119.86 262.329 119.353 262.51 118.927 262.873C118.5 263.236 118.169 263.748 117.935 264.409C117.7 265.07 117.583 265.854 117.583 266.761C117.583 267.657 117.7 268.441 117.935 269.113C118.169 269.774 118.5 270.286 118.927 270.649C119.364 271.012 119.876 271.193 120.463 271.193ZM128.54 272.729L138.236 260.809H140.252L130.556 272.729H128.54ZM130.364 266.857C129.777 266.857 129.249 266.718 128.78 266.441C128.311 266.153 127.932 265.774 127.644 265.305C127.367 264.836 127.228 264.313 127.228 263.737C127.228 263.161 127.367 262.638 127.644 262.169C127.932 261.689 128.311 261.31 128.78 261.033C129.249 260.756 129.777 260.617 130.364 260.617C130.951 260.617 131.479 260.756 131.948 261.033C132.417 261.31 132.791 261.689 133.068 262.169C133.345 262.638 133.484 263.161 133.484 263.737C133.484 264.313 133.345 264.836 133.068 265.305C132.791 265.774 132.417 266.153 131.948 266.441C131.479 266.718 130.951 266.857 130.364 266.857ZM130.364 265.401C130.695 265.401 130.977 265.321 131.212 265.161C131.457 265.001 131.644 264.793 131.772 264.537C131.9 264.281 131.964 264.014 131.964 263.737C131.964 263.449 131.9 263.182 131.772 262.937C131.644 262.681 131.457 262.473 131.212 262.313C130.977 262.153 130.695 262.073 130.364 262.073C130.044 262.073 129.761 262.153 129.516 262.313C129.271 262.473 129.079 262.681 128.94 262.937C128.812 263.182 128.748 263.449 128.748 263.737C128.748 264.014 128.812 264.281 128.94 264.537C129.079 264.793 129.271 265.001 129.516 265.161C129.761 265.321 130.044 265.401 130.364 265.401ZM138.348 272.921C137.761 272.921 137.228 272.782 136.748 272.505C136.279 272.217 135.905 271.838 135.628 271.369C135.351 270.9 135.212 270.377 135.212 269.801C135.212 269.225 135.351 268.702 135.628 268.233C135.905 267.753 136.279 267.374 136.748 267.097C137.228 266.82 137.761 266.681 138.348 266.681C138.935 266.681 139.463 266.82 139.932 267.097C140.401 267.374 140.775 267.753 141.052 268.233C141.329 268.702 141.468 269.225 141.468 269.801C141.468 270.377 141.329 270.9 141.052 271.369C140.775 271.838 140.401 272.217 139.932 272.505C139.463 272.782 138.935 272.921 138.348 272.921ZM138.348 271.465C138.679 271.465 138.961 271.385 139.196 271.225C139.431 271.065 139.612 270.857 139.74 270.601C139.879 270.345 139.948 270.078 139.948 269.801C139.948 269.513 139.879 269.246 139.74 269.001C139.612 268.745 139.431 268.537 139.196 268.377C138.961 268.217 138.679 268.137 138.348 268.137C138.028 268.137 137.745 268.217 137.5 268.377C137.255 268.537 137.063 268.745 136.924 269.001C136.796 269.246 136.732 269.513 136.732 269.801C136.732 270.078 136.796 270.345 136.924 270.601C137.063 270.857 137.255 271.065 137.5 271.225C137.745 271.385 138.028 271.465 138.348 271.465Z" fill="#101828"/>
<path d="M239.344 272.729V262.489H236.176V260.809H244.336V262.489H241.216V272.729H239.344ZM245.572 272.729V264.073H247.38V272.729H245.572ZM245.572 262.889V260.809H247.38V262.889H245.572ZM249.493 272.729V264.073H251.222V265.945L250.998 265.657C251.179 265.07 251.51 264.628 251.99 264.329C252.47 264.03 253.019 263.881 253.638 263.881C254.331 263.881 254.944 264.068 255.478 264.441C256.022 264.804 256.384 265.289 256.566 265.897L256.054 265.945C256.31 265.252 256.699 264.734 257.222 264.393C257.755 264.052 258.363 263.881 259.046 263.881C259.643 263.881 260.182 264.02 260.662 264.297C261.152 264.574 261.542 264.958 261.83 265.449C262.118 265.94 262.262 266.5 262.262 267.129V272.729H260.454V267.625C260.454 267.188 260.374 266.82 260.214 266.521C260.064 266.212 259.851 265.977 259.574 265.817C259.307 265.646 258.992 265.561 258.63 265.561C258.267 265.561 257.947 265.646 257.67 265.817C257.392 265.977 257.174 266.212 257.014 266.521C256.854 266.83 256.774 267.198 256.774 267.625V272.729H254.982V267.625C254.982 267.188 254.902 266.82 254.742 266.521C254.592 266.212 254.379 265.977 254.102 265.817C253.835 265.646 253.515 265.561 253.141 265.561C252.779 265.561 252.459 265.646 252.182 265.817C251.904 265.977 251.686 266.212 251.526 266.521C251.376 266.83 251.302 267.198 251.302 267.625V272.729H249.493ZM268.261 272.921C267.397 272.921 266.629 272.724 265.957 272.329C265.295 271.924 264.778 271.38 264.405 270.697C264.031 270.004 263.845 269.23 263.845 268.377C263.845 267.502 264.031 266.729 264.405 266.057C264.789 265.385 265.301 264.857 265.941 264.473C266.581 264.078 267.306 263.881 268.117 263.881C268.767 263.881 269.349 263.993 269.861 264.217C270.373 264.441 270.805 264.75 271.157 265.145C271.509 265.529 271.775 265.972 271.957 266.473C272.149 266.974 272.245 267.508 272.245 268.073C272.245 268.212 272.239 268.356 272.229 268.505C272.218 268.654 272.197 268.793 272.165 268.921H265.269V267.481H271.141L270.277 268.137C270.383 267.614 270.346 267.15 270.165 266.745C269.994 266.329 269.727 266.004 269.365 265.769C269.013 265.524 268.597 265.401 268.117 265.401C267.637 265.401 267.21 265.524 266.837 265.769C266.463 266.004 266.175 266.345 265.973 266.793C265.77 267.23 265.69 267.764 265.733 268.393C265.679 268.98 265.759 269.492 265.973 269.929C266.197 270.366 266.506 270.708 266.901 270.953C267.306 271.198 267.765 271.321 268.277 271.321C268.799 271.321 269.242 271.204 269.605 270.969C269.978 270.734 270.271 270.43 270.485 270.057L271.957 270.777C271.786 271.182 271.519 271.55 271.157 271.881C270.805 272.201 270.378 272.457 269.877 272.649C269.386 272.83 268.847 272.921 268.261 272.921ZM277.606 272.729V270.649H279.446V272.729H277.606ZM277.606 266.153V264.073H279.446V266.153H277.606ZM293.195 272.729V270.041H287.515V268.473L293.115 260.809H294.987V268.473H296.635V270.041H294.987V272.729H293.195ZM288.907 269.161L288.603 268.473H293.195V262.313L293.707 262.473L288.907 269.161ZM304.287 272.921C303.402 272.921 302.623 272.702 301.951 272.265C301.29 271.828 300.826 271.241 300.559 270.505L301.951 269.849C302.186 270.34 302.506 270.729 302.911 271.017C303.327 271.305 303.786 271.449 304.287 271.449C304.714 271.449 305.061 271.353 305.327 271.161C305.594 270.969 305.727 270.708 305.727 270.377C305.727 270.164 305.669 269.993 305.551 269.865C305.434 269.726 305.285 269.614 305.103 269.529C304.933 269.444 304.757 269.38 304.575 269.337L303.215 268.953C302.469 268.74 301.909 268.42 301.535 267.993C301.173 267.556 300.991 267.049 300.991 266.473C300.991 265.95 301.125 265.497 301.391 265.113C301.658 264.718 302.026 264.414 302.495 264.201C302.965 263.988 303.493 263.881 304.079 263.881C304.869 263.881 305.573 264.078 306.191 264.473C306.81 264.857 307.247 265.396 307.503 266.089L306.111 266.745C305.941 266.329 305.669 265.998 305.295 265.753C304.933 265.508 304.522 265.385 304.063 265.385C303.669 265.385 303.354 265.481 303.119 265.673C302.885 265.854 302.767 266.094 302.767 266.393C302.767 266.596 302.821 266.766 302.927 266.905C303.034 267.033 303.173 267.14 303.343 267.225C303.514 267.3 303.69 267.364 303.871 267.417L305.279 267.833C305.994 268.036 306.543 268.356 306.927 268.793C307.311 269.22 307.503 269.732 307.503 270.329C307.503 270.841 307.365 271.294 307.087 271.689C306.821 272.073 306.447 272.377 305.967 272.601C305.487 272.814 304.927 272.921 304.287 272.921ZM313.339 272.921C312.475 272.921 311.707 272.724 311.035 272.329C310.373 271.924 309.856 271.38 309.483 270.697C309.109 270.004 308.923 269.23 308.923 268.377C308.923 267.502 309.109 266.729 309.483 266.057C309.867 265.385 310.379 264.857 311.019 264.473C311.659 264.078 312.384 263.881 313.195 263.881C313.845 263.881 314.427 263.993 314.939 264.217C315.451 264.441 315.883 264.75 316.235 265.145C316.587 265.529 316.853 265.972 317.035 266.473C317.227 266.974 317.323 267.508 317.323 268.073C317.323 268.212 317.317 268.356 317.307 268.505C317.296 268.654 317.275 268.793 317.243 268.921H310.347V267.481H316.219L315.355 268.137C315.461 267.614 315.424 267.15 315.243 266.745C315.072 266.329 314.805 266.004 314.443 265.769C314.091 265.524 313.675 265.401 313.195 265.401C312.715 265.401 312.288 265.524 311.915 265.769C311.541 266.004 311.253 266.345 311.051 266.793C310.848 267.23 310.768 267.764 310.811 268.393C310.757 268.98 310.837 269.492 311.051 269.929C311.275 270.366 311.584 270.708 311.979 270.953C312.384 271.198 312.843 271.321 313.355 271.321C313.877 271.321 314.32 271.204 314.683 270.969C315.056 270.734 315.349 270.43 315.563 270.057L317.035 270.777C316.864 271.182 316.597 271.55 316.235 271.881C315.883 272.201 315.456 272.457 314.955 272.649C314.464 272.83 313.925 272.921 313.339 272.921ZM323.199 272.921C322.335 272.921 321.567 272.724 320.895 272.329C320.234 271.924 319.706 271.38 319.311 270.697C318.927 270.014 318.735 269.241 318.735 268.377C318.735 267.524 318.927 266.756 319.311 266.073C319.695 265.39 320.223 264.857 320.895 264.473C321.567 264.078 322.335 263.881 323.199 263.881C323.786 263.881 324.335 263.988 324.847 264.201C325.359 264.404 325.802 264.686 326.175 265.049C326.559 265.412 326.842 265.833 327.023 266.313L325.439 267.049C325.258 266.601 324.965 266.244 324.559 265.977C324.165 265.7 323.711 265.561 323.199 265.561C322.709 265.561 322.266 265.684 321.871 265.929C321.487 266.164 321.183 266.5 320.959 266.937C320.735 267.364 320.623 267.849 320.623 268.393C320.623 268.937 320.735 269.428 320.959 269.865C321.183 270.292 321.487 270.628 321.871 270.873C322.266 271.118 322.709 271.241 323.199 271.241C323.722 271.241 324.175 271.108 324.559 270.841C324.954 270.564 325.247 270.196 325.439 269.737L327.023 270.489C326.853 270.948 326.575 271.364 326.191 271.737C325.818 272.1 325.375 272.388 324.863 272.601C324.351 272.814 323.797 272.921 323.199 272.921Z" fill="#101828"/>
<circle cx="319.5" cy="26" r="6" stroke="#6AE29D" stroke-width="4"/>
<circle cx="361.5" cy="76" r="4.8" stroke="#6AE29D" stroke-opacity="0.6" stroke-width="2.4"/>
<path d="M71.3 77C71.3 79.651 69.151 81.8 66.5 81.8C63.849 81.8 61.7 79.651 61.7 77C61.7 74.349 63.849 72.2 66.5 72.2C69.151 72.2 71.3 74.349 71.3 77Z" stroke="#6AE29D" stroke-opacity="0.6" stroke-width="2.4"/>
<path d="M174.3 6C174.3 8.65097 172.151 10.8 169.5 10.8C166.849 10.8 164.7 8.65097 164.7 6C164.7 3.34903 166.849 1.2 169.5 1.2C172.151 1.2 174.3 3.34903 174.3 6Z" stroke="#6AE29D" stroke-opacity="0.6" stroke-width="2.4"/>
<path d="M310.152 109.5C309.71 109.5 309.352 109.142 309.352 108.7V107.284C309.352 106.732 308.904 106.284 308.352 106.284H306.936C306.494 106.284 306.136 105.926 306.136 105.484C306.136 105.042 306.494 104.684 306.936 104.684H308.352C308.904 104.684 309.352 104.236 309.352 103.684V102.3C309.352 101.858 309.71 101.5 310.152 101.5C310.594 101.5 310.952 101.858 310.952 102.3V103.684C310.952 104.236 311.399 104.684 311.952 104.684H313.336C313.778 104.684 314.136 105.042 314.136 105.484C314.136 105.926 313.778 106.284 313.336 106.284H311.952C311.399 106.284 310.952 106.732 310.952 107.284V108.7C310.952 109.142 310.594 109.5 310.152 109.5Z" fill="#6AE29D"/>
<path d="M10.1517 39.5C9.70991 39.5 9.35174 39.1418 9.35174 38.7V37.284C9.35174 36.7317 8.90403 36.284 8.35174 36.284H6.93574C6.49391 36.284 6.13574 35.9258 6.13574 35.484C6.13574 35.0422 6.49391 34.684 6.93574 34.684H8.35174C8.90403 34.684 9.35174 34.2363 9.35174 33.684V32.3C9.35174 31.8582 9.70991 31.5 10.1517 31.5C10.5936 31.5 10.9517 31.8582 10.9517 32.3V33.684C10.9517 34.2363 11.3995 34.684 11.9517 34.684H13.3357C13.7776 34.684 14.1357 35.0422 14.1357 35.484C14.1357 35.9258 13.7776 36.284 13.3357 36.284H11.9517C11.3995 36.284 10.9517 36.7317 10.9517 37.284V38.7C10.9517 39.1418 10.5936 39.5 10.1517 39.5Z" fill="#6AE29D"/>
<path d="M262.152 22.5C261.71 22.5 261.352 22.1418 261.352 21.7V20.284C261.352 19.7317 260.904 19.284 260.352 19.284H258.936C258.494 19.284 258.136 18.9258 258.136 18.484C258.136 18.0422 258.494 17.684 258.936 17.684H260.352C260.904 17.684 261.352 17.2363 261.352 16.684V15.3C261.352 14.8582 261.71 14.5 262.152 14.5C262.594 14.5 262.952 14.8582 262.952 15.3V16.684C262.952 17.2363 263.399 17.684 263.952 17.684H265.336C265.778 17.684 266.136 18.0422 266.136 18.484C266.136 18.9258 265.778 19.284 265.336 19.284H263.952C263.399 19.284 262.952 19.7317 262.952 20.284V21.7C262.952 22.1418 262.594 22.5 262.152 22.5Z" fill="#6AE29D"/>
<circle cx="8" cy="123.5" r="6" stroke="#6AE29D" stroke-width="4"/>
<circle cx="86" cy="18.5" r="6" stroke="#6AE29D" stroke-width="4"/>
<defs>
<linearGradient id="paint0_linear_48_29" x1="180" y1="36.5" x2="180" y2="187" gradientUnits="userSpaceOnUse">
<stop stop-color="#2AC56C"/>
<stop offset="1" stop-color="#79E9A9"/>
</linearGradient>
<linearGradient id="paint1_linear_48_29" x1="35" y1="232.729" x2="324" y2="232.729" gradientUnits="userSpaceOnUse">
<stop stop-color="#72E6A4"/>
<stop offset="1" stop-color="#2AC56C"/>
</linearGradient>
</defs>
</svg>
